<?xml version="1.0" standalone="no"?><!-- Generator: Gravit.io --><svg xmlns="http://www.w3.org/2000/svg" xmlns:xlink="http://www.w3.org/1999/xlink" style="isolation:isolate" viewBox="107 67 1336.022 883" width="1336.022" height="883"><g id="BROWSER_WINDOW"><g id="Group"><path d="M 117.104 67 L 1432.919 67 C 1438.495 67 1443.022 71.527 1443.022 77.104 L 1443.022 137 L 107 137 L 107 77.104 C 107 71.527 111.527 67 117.104 67 Z" style="stroke:none;fill:#E8E8E8;stroke-miterlimit:10;"/><g id="Group"><path d=" M 155.109 102 C 155.109 96.294 159.235 91.662 164.316 91.662 C 169.397 91.662 173.523 96.294 173.523 102 C 173.523 107.706 169.397 112.338 164.316 112.338 C 159.235 112.338 155.109 107.706 155.109 102 Z " fill="rgb(229,173,45)"/><path d=" M 128 102 C 128 96.294 132.125 91.662 137.207 91.662 C 142.288 91.662 146.414 96.294 146.414 102 C 146.414 107.706 142.288 112.338 137.207 112.338 C 132.125 112.338 128 107.706 128 102 Z " fill="rgb(232,112,79)"/><path d=" M 180.172 102 C 180.172 96.294 184.298 91.662 189.379 91.662 C 194.461 91.662 198.586 96.294 198.586 102 C 198.586 107.706 194.461 112.338 189.379 112.338 C 184.298 112.338 180.172 107.706 180.172 102 Z " fill="rgb(134,197,59)"/></g><rect x="212" y="84.5" width="1202.978" height="35" transform="matrix(1,0,0,1,0,0)" fill="rgb(255,255,255)"/></g><rect x="107" y="137" width="1336.022" height="813" transform="matrix(1,0,0,1,0,0)" fill="rgb(26,56,74)"/></g></svg>