<?xml version="1.0" standalone="no"?>
<!-- Generator: Gravit.io -->
<svg xmlns="http://www.w3.org/2000/svg" xmlns:xlink="http://www.w3.org/1999/xlink" style="isolation:isolate;margin-bottom:-8px;width:100%;height:auto;" viewBox="0 0 1336.022 883" width="1336.022" height="883">
    <defs>
        <clipPath id="_clipPath_8riYLUoouiRutQHjc8BQItqDE5OtHEcv">
            <rect width="1336.022" height="883" />
        </clipPath>
    </defs>
    <g clip-path="url(#_clipPath_8riYLUoouiRutQHjc8BQItqDE5OtHEcv)">
        <g id="Group">
            <g id="BROWSER_WINDOW">
                <g id="Group">
                    <path d="M 10.104 0 L 1325.919 0 C 1331.495 0 1336.022 4.527 1336.022 10.104 L 1336.022 70 L 0 70 L 0 10.104 C 0 4.527 4.527 0 10.104 0 Z" style="stroke:none;fill:#E8E8E8;stroke-miterlimit:10;" />
                    <g id="Group">
                        <path d=" M 48.109 35 C 48.109 29.294 52.235 24.662 57.316 24.662 C 62.397 24.662 66.523 29.294 66.523 35 C 66.523 40.706 62.397 45.338 57.316 45.338 C 52.235 45.338 48.109 40.706 48.109 35 Z " fill="rgb(229,173,45)" />
                        <path d=" M 21 35 C 21 29.294 25.125 24.662 30.207 24.662 C 35.288 24.662 39.414 29.294 39.414 35 C 39.414 40.706 35.288 45.338 30.207 45.338 C 25.125 45.338 21 40.706 21 35 Z " fill="rgb(232,112,79)" />
                        <path d=" M 73.172 35 C 73.172 29.294 77.298 24.662 82.379 24.662 C 87.461 24.662 91.586 29.294 91.586 35 C 91.586 40.706 87.461 45.338 82.379 45.338 C 77.298 45.338 73.172 40.706 73.172 35 Z " fill="rgb(134,197,59)" />
                    </g>
                    <rect x="105" y="17.5" width="1202.978" height="35" transform="matrix(1,0,0,1,0,0)" fill="rgb(255,255,255)" />
                </g>
                <rect x="0" y="70" width="1336.022" height="813" style="opacity:0.6;" transform="matrix(1,0,0,1,0,0)" fill="rgb(26,56,74)" />
            </g>
            <g id="t_skillset_text">
                <g transform="matrix(1,0,0,1,20,169.531)">
                    <text transform="matrix(1,0,0,1,23.816,48.242)" style="font-family:&quot;Roboto Condensed&quot;;font-weight:400;font-size:52px;font-style:normal;fill:#26e46a;stroke:none;">~/tech-stack </text>
                    <text transform="matrix(1,0,0,1,298.797,48.242)" style="font-family:&quot;Roboto Condensed&quot;;font-weight:700;font-size:52px;font-style:normal;fill:#26e46a;stroke:none;">$ </text>
                </g>
            </g>
            <g id="Group">
                <g id="t_skillset_text">
                    <g transform="matrix(1,0,0,1,20,273)">
                        <text transform="matrix(1,0,0,1,23.816,48.242)" style="font-family:&quot;Roboto Condensed&quot;;font-weight:400;font-size:52px;font-style:normal;fill:#26e46a;stroke:none;">~/tech-stack </text>
                        <text transform="matrix(1,0,0,1,298.797,48.242)" style="font-family:&quot;Roboto Condensed&quot;;font-weight:700;font-size:52px;font-style:normal;fill:#26e46a;stroke:none;">$ </text>
                    </g>
                </g>
                <rect class="typed-cursor" x="420.5" y="273.469" width="26" height="60" transform="matrix(1,0,0,1,0,0)" fill="rgb(38,228,106)" />
            </g>
            <g id="techs">
                <g id="angularjs">
                    <path d=" M 882.17 149.823 L 834.954 166.439 L 842.414 228.3 L 882.22 250.177 L 922.23 228.004 L 929.688 166.145 L 882.17 149.823 Z " fill="rgb(179,179,179)" />
                    <path d=" M 924.978 169.72 L 882.06 155.084 L 882.06 244.95 L 918.028 225.044 L 924.978 169.72 Z " fill="rgb(166,18,13)" />
                    <path d=" M 840.251 169.984 L 846.646 225.309 L 882.059 244.95 L 882.059 155.082 L 840.251 169.984 Z " fill="rgb(221,27,22)" />
                    <path d=" M 893.874 202.924 L 882.06 208.449 L 869.607 208.449 L 863.753 223.09 L 852.867 223.292 L 882.06 158.347 L 893.874 202.924 Z  M 892.731 200.143 L 882.138 179.17 L 873.448 199.782 L 882.059 199.782 L 892.731 200.143 Z " fill="rgb(242,242,242)" />
                    <path d=" M 882.059 158.347 L 882.137 179.17 L 891.997 199.798 L 882.08 199.798 L 882.059 208.436 L 895.771 208.449 L 902.179 223.294 L 912.596 223.486 L 882.059 158.347 Z " fill="rgb(179,179,179)" />
                </g>
                <g id="docker">
                    <path d=" M 1058.947 183.19 L 1072.601 183.19 L 1072.601 197.085 L 1079.488 197.085 C 1082.629 197.085 1085.891 196.481 1088.912 195.514 C 1090.362 195.031 1092.053 194.306 1093.503 193.46 C 1091.57 190.923 1090.603 187.781 1090.362 184.64 C 1089.999 180.411 1090.845 174.853 1093.745 171.591 L 1095.195 169.899 L 1096.886 171.228 C 1101.236 174.732 1104.74 179.444 1105.465 185.002 C 1110.66 183.431 1116.702 183.794 1121.293 186.452 L 1123.105 187.539 L 1122.139 189.473 C 1118.272 196.964 1110.177 199.38 1102.323 198.897 C 1090.483 228.257 1064.868 242.152 1033.695 242.152 C 1017.625 242.152 1002.885 236.111 994.427 221.854 L 994.306 221.612 L 993.098 219.075 C 990.198 212.792 989.352 205.905 989.956 199.018 L 990.198 196.964 L 1001.797 196.964 L 1001.797 183.19 L 1015.45 183.19 L 1015.45 169.657 L 1042.636 169.657 L 1042.636 156.004 L 1058.947 156.004 L 1058.947 183.19 L 1058.947 183.19 Z " fill-rule="evenodd" fill="rgb(58,77,84)" />
                    <path d=" M 1103.169 188.385 C 1104.136 181.257 1098.82 175.699 1095.436 173.041 C 1091.691 177.39 1091.087 188.989 1097.007 193.822 C 1093.624 196.722 1086.737 199.501 1079.488 199.501 L 992.252 199.501 C 991.527 206.992 992.856 213.879 995.877 219.8 L 996.843 221.612 C 997.448 222.7 998.172 223.666 998.897 224.754 C 1002.522 224.995 1005.784 225.116 1008.805 224.995 C 1014.725 224.874 1019.558 224.149 1023.304 222.941 C 1023.908 222.7 1024.391 223.062 1024.633 223.545 C 1024.875 224.149 1024.512 224.633 1024.029 224.874 C 1023.546 224.995 1023.062 225.237 1022.458 225.358 C 1019.558 226.203 1016.417 226.687 1012.43 226.928 L 1011.705 226.928 C 1010.134 227.049 1008.443 227.049 1006.63 227.049 C 1004.697 227.049 1002.885 227.049 1000.71 226.928 C 1007.959 235.144 1019.317 239.977 1033.574 239.977 C 1063.78 239.977 1089.395 226.566 1100.632 196.601 C 1108.727 197.447 1116.46 195.393 1119.964 188.506 C 1114.527 185.244 1107.277 186.331 1103.169 188.385 L 1103.169 188.385 Z " fill="rgb(0,170,218)" />
                    <path d=" M 1103.169 188.385 C 1104.136 181.257 1098.82 175.699 1095.436 173.041 C 1091.691 177.39 1091.087 188.989 1097.007 193.822 C 1093.624 196.722 1086.737 199.501 1079.488 199.501 L 997.327 199.501 C 996.964 210.98 1001.193 219.679 1008.805 224.874 C 1014.725 224.754 1019.558 224.029 1023.304 222.82 C 1023.908 222.579 1024.391 222.941 1024.633 223.424 C 1024.875 224.029 1024.512 224.512 1024.029 224.754 C 1023.546 224.874 1023.062 225.116 1022.458 225.237 C 1019.558 226.083 1016.175 226.687 1012.188 226.928 L 1012.067 226.808 C 1022.337 232.124 1037.199 232.003 1054.356 225.478 C 1073.446 218.108 1091.328 204.092 1103.773 188.144 C 1103.532 188.264 1103.29 188.264 1103.169 188.385 L 1103.169 188.385 Z " fill="rgb(40,184,235)" />
                    <path d=" M 992.373 208.563 C 992.856 212.55 994.064 216.296 995.877 219.8 L 996.843 221.612 C 997.448 222.7 998.172 223.666 998.897 224.754 C 1002.522 224.995 1005.784 225.116 1008.805 224.995 C 1014.725 224.874 1019.558 224.149 1023.304 222.941 C 1023.908 222.7 1024.391 223.062 1024.633 223.545 C 1024.875 224.149 1024.512 224.633 1024.029 224.874 C 1023.546 224.995 1023.062 225.237 1022.458 225.358 C 1019.558 226.203 1016.175 226.808 1012.188 227.049 L 1011.705 227.049 C 1010.134 227.17 1008.443 227.17 1006.751 227.17 C 1004.818 227.17 1002.885 227.17 1000.831 227.049 C 1008.08 235.265 1019.558 240.098 1033.816 240.098 C 1059.672 240.098 1082.146 230.311 1095.195 208.684 L 992.373 208.684 L 992.373 208.563 Z " fill="rgb(2,139,184)" />
                    <path d=" M 998.172 208.563 C 999.743 215.571 1003.368 221.129 1008.805 224.874 C 1014.725 224.754 1019.558 224.029 1023.304 222.82 C 1023.908 222.579 1024.391 222.941 1024.633 223.424 C 1024.875 224.029 1024.512 224.512 1024.029 224.754 C 1023.546 224.874 1023.062 225.116 1022.458 225.237 C 1019.558 226.083 1016.175 226.687 1012.067 226.928 C 1022.337 232.245 1037.199 232.124 1054.235 225.599 C 1064.505 221.612 1074.534 215.692 1083.475 208.563 L 998.172 208.563 L 998.172 208.563 Z " fill="rgb(1,155,198)" />
                    <path d=" M 1004.093 185.485 L 1015.934 185.485 L 1015.934 197.326 L 1004.093 197.326 L 1004.093 185.485 Z  M 1005.06 186.452 L 1006.026 186.452 L 1006.026 196.239 L 1005.06 196.239 L 1005.06 186.452 Z  M 1006.751 186.452 L 1007.718 186.452 L 1007.718 196.239 L 1006.751 196.239 L 1006.751 186.452 Z  M 1008.563 186.452 L 1009.53 186.452 L 1009.53 196.239 L 1008.563 196.239 L 1008.563 186.452 Z  M 1010.376 186.452 L 1011.342 186.452 L 1011.342 196.239 L 1010.376 196.239 L 1010.376 186.452 Z  M 1012.188 186.452 L 1013.155 186.452 L 1013.155 196.239 L 1012.188 196.239 L 1012.188 186.452 Z  M 1014.001 186.452 L 1014.967 186.452 L 1014.967 196.239 L 1014.001 196.239 L 1014.001 186.452 Z  M 1017.625 171.953 L 1029.466 171.953 L 1029.466 183.794 L 1017.625 183.794 L 1017.625 171.953 Z  M 1018.713 172.92 L 1019.679 172.92 L 1019.679 182.707 L 1018.713 182.707 L 1018.713 172.92 Z  M 1020.404 172.92 L 1021.371 172.92 L 1021.371 182.707 L 1020.404 182.707 L 1020.404 172.92 Z  M 1022.217 172.92 L 1023.183 172.92 L 1023.183 182.707 L 1022.217 182.707 L 1022.217 172.92 Z  M 1024.029 172.92 L 1024.996 172.92 L 1024.996 182.707 L 1024.029 182.707 L 1024.029 172.92 Z  M 1025.721 172.92 L 1026.687 172.92 L 1026.687 182.707 L 1025.721 182.707 L 1025.721 172.92 Z  M 1027.533 172.92 L 1028.5 172.92 L 1028.5 182.707 L 1027.533 182.707 L 1027.533 172.92 Z " fill-rule="evenodd" fill="rgb(0,172,211)" />
                    <path d=" M 1017.625 185.485 L 1029.466 185.485 L 1029.466 197.326 L 1017.625 197.326 L 1017.625 185.485 Z  M 1018.713 186.452 L 1019.679 186.452 L 1019.679 196.239 L 1018.713 196.239 L 1018.713 186.452 Z  M 1020.404 186.452 L 1021.371 186.452 L 1021.371 196.239 L 1020.404 196.239 L 1020.404 186.452 Z  M 1022.217 186.452 L 1023.183 186.452 L 1023.183 196.239 L 1022.217 196.239 L 1022.217 186.452 Z  M 1024.029 186.452 L 1024.996 186.452 L 1024.996 196.239 L 1024.029 196.239 L 1024.029 186.452 Z  M 1025.721 186.452 L 1026.687 186.452 L 1026.687 196.239 L 1025.721 196.239 L 1025.721 186.452 Z  M 1027.533 186.452 L 1028.5 186.452 L 1028.5 196.239 L 1027.533 196.239 L 1027.533 186.452 Z " fill-rule="evenodd" fill="rgb(35,194,238)" />
                    <path d=" M 1031.278 185.485 L 1043.119 185.485 L 1043.119 197.326 L 1031.278 197.326 L 1031.278 185.485 Z  M 1032.245 186.452 L 1033.212 186.452 L 1033.212 196.239 L 1032.245 196.239 L 1032.245 186.452 Z  M 1034.057 186.452 L 1035.024 186.452 L 1035.024 196.239 L 1034.057 196.239 L 1034.057 186.452 Z  M 1035.87 186.452 L 1036.836 186.452 L 1036.836 196.239 L 1035.87 196.239 L 1035.87 186.452 Z  M 1037.561 186.452 L 1038.528 186.452 L 1038.528 196.239 L 1037.561 196.239 L 1037.561 186.452 Z  M 1039.374 186.452 L 1040.34 186.452 L 1040.34 196.239 L 1039.374 196.239 L 1039.374 186.452 Z  M 1041.186 186.452 L 1042.153 186.452 L 1042.153 196.239 L 1041.186 196.239 L 1041.186 186.452 Z " fill-rule="evenodd" fill="rgb(0,172,211)" />
                    <path d=" M 1031.278 171.953 L 1043.119 171.953 L 1043.119 183.794 L 1031.278 183.794 L 1031.278 171.953 Z  M 1032.245 172.92 L 1033.212 172.92 L 1033.212 182.707 L 1032.245 182.707 L 1032.245 172.92 Z  M 1034.057 172.92 L 1035.024 172.92 L 1035.024 182.707 L 1034.057 182.707 L 1034.057 172.92 Z  M 1035.87 172.92 L 1036.836 172.92 L 1036.836 182.707 L 1035.87 182.707 L 1035.87 172.92 Z  M 1037.561 172.92 L 1038.528 172.92 L 1038.528 182.707 L 1037.561 182.707 L 1037.561 172.92 Z  M 1039.374 172.92 L 1040.34 172.92 L 1040.34 182.707 L 1039.374 182.707 L 1039.374 172.92 Z  M 1041.186 172.92 L 1042.153 172.92 L 1042.153 182.707 L 1041.186 182.707 L 1041.186 172.92 Z  M 1044.932 185.485 L 1056.773 185.485 L 1056.773 197.326 L 1044.932 197.326 L 1044.932 185.485 Z  M 1045.898 186.452 L 1046.865 186.452 L 1046.865 196.239 L 1045.898 196.239 L 1045.898 186.452 Z  M 1047.711 186.452 L 1048.677 186.452 L 1048.677 196.239 L 1047.711 196.239 L 1047.711 186.452 Z  M 1049.402 186.452 L 1050.369 186.452 L 1050.369 196.239 L 1049.402 196.239 L 1049.402 186.452 Z  M 1051.215 186.452 L 1052.181 186.452 L 1052.181 196.239 L 1051.215 196.239 L 1051.215 186.452 Z  M 1053.027 186.452 L 1053.994 186.452 L 1053.994 196.239 L 1053.027 196.239 L 1053.027 186.452 Z  M 1054.839 186.452 L 1055.806 186.452 L 1055.806 196.239 L 1054.839 196.239 L 1054.839 186.452 Z " fill-rule="evenodd" fill="rgb(35,194,238)" />
                    <path d=" M 1044.932 171.953 L 1056.773 171.953 L 1056.773 183.794 L 1044.932 183.794 L 1044.932 171.953 Z  M 1045.898 172.92 L 1046.865 172.92 L 1046.865 182.707 L 1045.898 182.707 L 1045.898 172.92 Z  M 1047.711 172.92 L 1048.677 172.92 L 1048.677 182.707 L 1047.711 182.707 L 1047.711 172.92 Z  M 1049.402 172.92 L 1050.369 172.92 L 1050.369 182.707 L 1049.402 182.707 L 1049.402 172.92 Z  M 1051.215 172.92 L 1052.181 172.92 L 1052.181 182.707 L 1051.215 182.707 L 1051.215 172.92 Z  M 1053.027 172.92 L 1053.994 172.92 L 1053.994 182.707 L 1053.027 182.707 L 1053.027 172.92 Z  M 1054.839 172.92 L 1055.806 172.92 L 1055.806 182.707 L 1054.839 182.707 L 1054.839 172.92 Z " fill-rule="evenodd" fill="rgb(0,172,211)" />
                    <path d=" M 1044.932 158.3 L 1056.773 158.3 L 1056.773 170.141 L 1044.932 170.141 L 1044.932 158.3 Z  M 1045.898 159.266 L 1046.865 159.266 L 1046.865 169.053 L 1045.898 169.053 L 1045.898 159.266 Z  M 1047.711 159.266 L 1048.677 159.266 L 1048.677 169.053 L 1047.711 169.053 L 1047.711 159.266 Z  M 1049.402 159.266 L 1050.369 159.266 L 1050.369 169.053 L 1049.402 169.053 L 1049.402 159.266 Z  M 1051.215 159.266 L 1052.181 159.266 L 1052.181 169.053 L 1051.215 169.053 L 1051.215 159.266 Z  M 1053.027 159.266 L 1053.994 159.266 L 1053.994 169.053 L 1053.027 169.053 L 1053.027 159.266 Z  M 1054.839 159.266 L 1055.806 159.266 L 1055.806 169.053 L 1054.839 169.053 L 1054.839 159.266 Z " fill-rule="evenodd" fill="rgb(35,194,238)" />
                    <path d=" M 1058.585 185.485 L 1070.426 185.485 L 1070.426 197.326 L 1058.585 197.326 L 1058.585 185.485 Z  M 1059.552 186.452 L 1060.518 186.452 L 1060.518 196.239 L 1059.552 196.239 L 1059.552 186.452 Z  M 1061.243 186.452 L 1062.21 186.452 L 1062.21 196.239 L 1061.243 196.239 L 1061.243 186.452 Z  M 1063.055 186.452 L 1064.022 186.452 L 1064.022 196.239 L 1063.055 196.239 L 1063.055 186.452 Z  M 1064.868 186.452 L 1065.834 186.452 L 1065.834 196.239 L 1064.868 196.239 L 1064.868 186.452 Z  M 1066.68 186.452 L 1067.647 186.452 L 1067.647 196.239 L 1066.68 196.239 L 1066.68 186.452 Z  M 1068.493 186.452 L 1069.459 186.452 L 1069.459 196.239 L 1068.493 196.239 L 1068.493 186.452 Z " fill-rule="evenodd" fill="rgb(0,172,211)" />
                    <path d=" M 1028.741 216.417 C 1030.554 216.417 1032.003 217.867 1032.003 219.679 C 1032.003 221.491 1030.554 222.941 1028.741 222.941 C 1026.929 222.941 1025.479 221.491 1025.479 219.679 C 1025.479 217.867 1026.929 216.417 1028.741 216.417 Z " fill-rule="evenodd" fill="rgb(212,238,241)" />
                    <path d=" M 1028.741 217.383 C 1028.983 217.383 1029.345 217.383 1029.587 217.504 C 1029.345 217.625 1029.104 217.987 1029.104 218.35 C 1029.104 218.833 1029.587 219.316 1030.07 219.316 C 1030.433 219.316 1030.795 219.075 1030.916 218.833 C 1031.037 219.075 1031.037 219.437 1031.037 219.679 C 1031.037 221.008 1029.949 221.975 1028.741 221.975 C 1027.412 221.975 1026.446 220.887 1026.446 219.679 C 1026.446 218.471 1027.412 217.383 1028.741 217.383 M 971.108 209.771 L 1122.622 209.771 C 1119.36 208.925 1112.231 207.838 1113.319 203.488 C 1107.277 210.375 1092.899 208.321 1089.154 204.938 C 1085.046 210.859 1061.364 208.563 1059.793 203.972 C 1054.719 210.013 1038.89 210.013 1033.816 203.972 C 1032.124 208.563 1008.443 210.859 1004.455 204.938 C 1000.831 208.321 986.332 210.375 980.29 203.488 C 981.619 207.717 974.37 208.925 971.108 209.771 Z " fill-rule="evenodd" fill="rgb(58,77,84)" />
                    <path d=" M 1037.441 239.977 C 1029.345 236.111 1024.996 230.916 1022.458 225.237 C 1019.438 226.083 1015.813 226.687 1011.705 226.928 C 1010.134 227.049 1008.443 227.049 1006.751 227.049 C 1004.697 227.049 1002.643 227.049 1000.468 226.928 C 1007.718 234.178 1016.9 239.857 1033.695 239.977 L 1037.441 239.977 Z " fill="rgb(191,219,224)" />
                    <path d=" M 1025.479 230.432 C 1024.391 228.862 1023.304 227.049 1022.458 225.237 C 1019.438 226.083 1015.813 226.687 1011.705 226.928 C 1014.484 228.378 1018.592 229.828 1025.479 230.432 L 1025.479 230.432 Z " fill="rgb(212,238,241)" />
                </g>
                <g id="js">
                    <path d=" M 422.178 150.287 L 519.759 150.287 L 519.759 247.869 L 422.178 247.869 L 422.178 150.287 Z " fill="rgb(240,219,79)" />
                    <path d=" M 511.773 224.596 C 511.058 220.144 508.155 216.405 499.557 212.918 C 496.57 211.545 493.24 210.562 492.247 208.299 C 491.895 206.981 491.848 206.239 492.071 205.442 C 492.711 202.854 495.8 202.047 498.249 202.789 C 499.826 203.318 501.318 204.533 502.219 206.471 C 506.429 203.745 506.421 203.763 509.361 201.889 C 508.285 200.22 507.71 199.45 507.006 198.736 C 504.473 195.907 501.022 194.45 495.503 194.561 L 492.628 194.933 C 489.874 195.629 487.248 197.075 485.709 199.014 C 481.089 204.255 482.407 213.428 488.028 217.204 C 493.565 221.36 501.7 222.305 502.739 226.192 C 503.75 230.95 499.242 232.49 494.762 231.943 C 491.46 231.256 489.623 229.578 487.638 226.526 C 483.984 228.641 483.984 228.641 480.227 230.802 C 481.118 232.75 482.054 233.632 483.547 235.319 C 490.616 242.489 508.304 242.137 511.477 231.285 C 511.605 230.912 512.46 228.427 511.773 224.596 L 511.773 224.596 Z  M 475.226 195.136 L 466.099 195.136 L 466.061 218.733 C 466.061 223.751 466.321 228.352 465.505 229.762 C 464.17 232.536 460.709 232.192 459.133 231.654 C 457.528 230.865 456.711 229.743 455.766 228.158 C 455.506 227.703 455.311 227.35 455.246 227.323 L 447.825 231.868 C 449.059 234.4 450.877 236.598 453.205 238.026 C 456.683 240.114 461.358 240.754 466.247 239.631 C 469.429 238.705 472.174 236.785 473.612 233.862 C 475.69 230.031 475.244 225.394 475.225 220.265 C 475.272 211.897 475.226 203.53 475.226 195.136 Z " fill="rgb(50,51,48)" />
                </g>
                <g id="mongodb">
                    <path d=" M 1221.388 228.327 C 1221.525 228.064 1221.656 227.832 1221.768 227.592 C 1221.838 227.438 1221.947 227.407 1222.1 227.411 C 1223.017 227.437 1223.934 227.465 1224.851 227.474 C 1225.631 227.482 1226.412 227.468 1227.192 227.459 C 1228.071 227.448 1228.95 227.402 1229.828 227.427 C 1230.998 227.461 1232.137 227.69 1233.195 228.211 C 1234.458 228.833 1235.414 229.781 1236.066 231.03 C 1236.482 231.827 1236.723 232.673 1236.819 233.571 C 1236.958 234.872 1236.867 236.144 1236.454 237.389 C 1235.943 238.931 1234.971 240.112 1233.622 240.997 C 1232.584 241.677 1231.445 242.08 1230.225 242.309 C 1228.933 242.553 1227.637 242.475 1226.341 242.479 C 1224.92 242.484 1223.5 242.454 1222.079 242.437 C 1221.83 242.435 1221.795 242.388 1221.86 242.151 L 1221.921 241.932 C 1222.059 241.497 1222.134 241.477 1222.576 241.405 C 1222.881 241.355 1223.199 241.24 1223.455 241.07 C 1223.604 240.972 1223.666 240.714 1223.724 240.516 C 1223.774 240.343 1223.777 240.153 1223.778 239.97 C 1223.798 237.198 1223.819 234.427 1223.831 231.656 C 1223.833 230.956 1223.817 230.254 1223.778 229.555 C 1223.751 229.065 1223.489 228.73 1222.907 228.615 C 1222.453 228.525 1221.997 228.455 1221.541 228.375 L 1221.388 228.327 L 1221.388 228.327 Z  M 1234.399 235.039 C 1234.338 234.487 1234.308 233.93 1234.209 233.387 C 1233.973 232.081 1233.401 230.944 1232.398 230.053 C 1230.775 228.613 1228.821 228.391 1226.774 228.563 C 1226.307 228.602 1226.207 228.761 1226.2 229.24 C 1226.188 229.92 1226.177 230.6 1226.176 231.28 C 1226.173 233.436 1226.173 235.592 1226.176 237.748 C 1226.177 238.362 1226.184 238.975 1226.201 239.587 C 1226.221 240.213 1226.448 240.743 1227.062 240.986 C 1228.029 241.369 1229.046 241.414 1230.061 241.258 C 1231.682 241.01 1232.816 240.065 1233.577 238.65 C 1234.179 237.526 1234.349 236.3 1234.399 235.039 L 1234.399 235.039 Z  M 1238.34 242.381 C 1238.32 242.045 1238.458 241.767 1238.628 241.512 C 1238.674 241.443 1238.833 241.447 1238.942 241.425 L 1239.87 241.241 C 1240.197 241.172 1240.37 240.951 1240.416 240.63 C 1240.447 240.418 1240.476 240.204 1240.478 239.989 C 1240.498 238.292 1240.518 236.595 1240.526 234.898 C 1240.534 233.198 1240.527 231.498 1240.527 229.799 L 1240.52 229.474 C 1240.487 228.928 1240.223 228.645 1239.681 228.564 L 1238.505 228.386 C 1238.36 228.366 1238.307 228.297 1238.36 228.168 C 1238.451 227.949 1238.537 227.721 1238.665 227.524 C 1238.713 227.451 1238.874 227.422 1238.982 227.425 C 1239.544 227.433 1240.106 227.475 1240.668 227.474 L 1245.557 227.445 C 1246.499 227.444 1247.408 227.609 1248.253 228.059 C 1249.183 228.555 1249.704 229.321 1249.853 230.365 C 1250.008 231.462 1249.675 232.386 1248.874 233.12 C 1248.545 233.423 1248.118 233.62 1247.736 233.866 L 1247.612 233.944 C 1247.966 234.074 1248.304 234.187 1248.632 234.321 C 1249.594 234.715 1250.359 235.331 1250.763 236.315 C 1251.083 237.091 1251.083 237.9 1250.894 238.705 C 1250.599 239.964 1249.769 240.802 1248.69 241.435 C 1247.678 242.03 1246.582 242.377 1245.415 242.435 C 1244.339 242.489 1243.257 242.469 1242.179 242.481 L 1241.554 242.484 C 1240.515 242.461 1239.475 242.434 1238.435 242.407 L 1238.34 242.381 L 1238.34 242.381 Z  M 1242.821 237.453 L 1242.832 237.453 C 1242.832 237.985 1242.824 238.518 1242.834 239.05 C 1242.841 239.395 1242.828 239.75 1242.903 240.081 C 1243.015 240.577 1243.241 241.025 1243.798 241.167 C 1244.55 241.361 1245.318 241.4 1246.079 241.268 C 1247.031 241.102 1247.791 240.624 1248.208 239.717 C 1248.517 239.043 1248.563 238.328 1248.457 237.598 C 1248.317 236.637 1247.806 235.939 1246.957 235.482 C 1246.4 235.182 1245.806 234.998 1245.173 234.974 C 1244.464 234.947 1243.754 234.945 1243.045 234.923 C 1242.846 234.918 1242.819 235.019 1242.82 235.182 C 1242.824 235.938 1242.821 236.695 1242.821 237.453 L 1242.821 237.453 Z  M 1244.331 233.831 C 1244.718 233.811 1245.157 233.806 1245.593 233.762 C 1246.428 233.679 1247.017 233.259 1247.324 232.46 C 1247.48 232.054 1247.473 231.637 1247.477 231.215 C 1247.489 230.117 1246.848 229.217 1245.805 228.844 C 1245 228.557 1244.17 228.552 1243.334 228.575 C 1242.996 228.584 1242.845 228.732 1242.84 229.073 L 1242.79 233.515 C 1242.787 233.692 1242.863 233.768 1243.035 233.773 L 1244.331 233.831 L 1244.331 233.831 Z " fill-rule="evenodd" fill="rgb(148,121,93)" />
                    <path d=" M 1159.299 241.527 L 1159.24 242.291 C 1158.69 242.291 1158.182 242.287 1157.675 242.292 C 1156.719 242.302 1155.763 242.318 1154.806 242.331 L 1154.714 242.337 C 1154.577 242.321 1154.329 242.321 1154.322 242.28 C 1154.282 242.053 1154.295 241.814 1154.305 241.579 C 1154.306 241.552 1154.399 241.518 1154.453 241.505 L 1155.197 241.339 C 1155.661 241.218 1155.824 241.019 1155.846 240.539 C 1155.871 240 1155.896 239.459 1155.899 238.919 C 1155.906 237.59 1155.898 236.263 1155.904 234.934 C 1155.905 234.623 1155.797 234.392 1155.507 234.265 C 1155.162 234.113 1154.816 233.964 1154.467 233.824 C 1154.302 233.757 1154.088 233.721 1154.107 233.499 C 1154.126 233.273 1154.334 233.214 1154.53 233.17 C 1155.341 232.984 1156.153 232.804 1156.962 232.606 C 1157.222 232.542 1157.471 232.435 1157.783 232.326 C 1157.799 232.495 1157.829 232.655 1157.826 232.815 L 1157.778 233.577 C 1157.777 233.662 1157.822 233.777 1157.886 233.825 C 1157.925 233.855 1158.055 233.801 1158.12 233.751 C 1158.811 233.225 1159.543 232.771 1160.377 232.506 C 1161.67 232.096 1162.779 232.476 1163.556 233.59 C 1163.83 233.983 1163.83 233.983 1164.21 233.709 C 1164.862 233.235 1165.543 232.818 1166.305 232.542 C 1167.979 231.938 1169.587 232.705 1170.169 234.391 C 1170.381 235.003 1170.462 235.635 1170.461 236.281 L 1170.445 240.569 C 1170.444 240.922 1170.562 241.124 1170.898 241.234 C 1171.276 241.358 1171.668 241.443 1172.094 241.554 L 1171.995 242.292 C 1171.511 242.292 1171.066 242.288 1170.621 242.292 C 1169.533 242.302 1168.445 242.308 1167.358 242.333 C 1167.169 242.338 1167.12 242.291 1167.11 242.114 C 1167.078 241.546 1167.073 241.547 1167.608 241.419 L 1167.787 241.373 C 1168.309 241.231 1168.483 241.07 1168.487 240.541 C 1168.5 239.021 1168.531 237.497 1168.454 235.98 C 1168.374 234.407 1167.125 233.569 1165.6 233.972 C 1165.103 234.104 1164.652 234.333 1164.233 234.631 C 1164.091 234.732 1164.064 234.849 1164.076 235.026 C 1164.119 235.696 1164.145 236.367 1164.151 237.038 C 1164.161 238.213 1164.146 239.387 1164.151 240.562 C 1164.153 241.038 1164.315 241.22 1164.785 241.33 L 1165.484 241.491 L 1165.613 241.52 C 1165.623 241.744 1165.632 241.967 1165.622 242.191 C 1165.615 242.331 1165.507 242.343 1165.385 242.34 C 1164.706 242.323 1164.026 242.301 1163.347 242.302 C 1162.521 242.304 1161.695 242.327 1160.87 242.342 L 1160.676 242.342 C 1160.676 242.105 1160.664 241.878 1160.684 241.652 C 1160.688 241.598 1160.783 241.522 1160.849 241.505 L 1161.663 241.333 C 1162.009 241.248 1162.174 241.07 1162.193 240.719 C 1162.285 239.092 1162.352 237.465 1162.199 235.839 C 1162.169 235.523 1162.066 235.203 1161.935 234.912 C 1161.518 233.991 1160.58 233.607 1159.498 233.883 C 1158.984 234.015 1158.52 234.25 1158.082 234.547 C 1157.875 234.688 1157.776 234.874 1157.776 235.11 C 1157.776 236.732 1157.781 238.355 1157.786 239.977 L 1157.795 240.603 C 1157.805 241.039 1157.99 241.269 1158.423 241.363 C 1158.702 241.426 1158.983 241.469 1159.299 241.527 L 1159.299 241.527 Z " fill-rule="evenodd" fill="rgb(179,173,171)" />
                    <path d=" M 1208.23 232.492 C 1208.355 233.102 1208.353 233.651 1207.905 234.067 C 1207.46 234.481 1206.896 234.342 1206.347 234.249 C 1206.398 234.539 1206.454 234.785 1206.482 235.034 C 1206.682 236.887 1205.885 238.262 1204.166 239.048 C 1203.517 239.344 1202.828 239.454 1202.125 239.511 C 1201.776 239.538 1201.47 239.805 1201.436 240.093 C 1201.402 240.384 1201.585 240.684 1201.951 240.771 C 1202.383 240.874 1202.833 240.903 1203.275 240.954 C 1204.225 241.062 1205.186 241.112 1206.125 241.282 C 1207.544 241.537 1208.337 242.776 1208.087 244.203 C 1207.864 245.472 1207.129 246.395 1206.105 247.103 C 1204.378 248.299 1202.484 248.649 1200.468 248.039 C 1199.314 247.689 1198.501 246.931 1198.22 245.704 C 1198.079 245.09 1198.229 244.534 1198.691 244.117 C 1199.241 243.623 1199.839 243.183 1200.414 242.717 L 1200.6 242.53 L 1200.387 242.38 C 1199.8 242.101 1199.331 241.72 1199.148 241.058 C 1199.086 240.834 1199.151 240.687 1199.341 240.572 C 1199.665 240.377 1199.987 240.178 1200.307 239.977 C 1200.457 239.883 1200.606 239.786 1200.746 239.678 C 1200.937 239.532 1200.92 239.423 1200.692 239.339 C 1200.161 239.143 1199.689 238.859 1199.323 238.422 C 1198.712 237.693 1198.539 236.825 1198.589 235.908 C 1198.668 234.475 1199.445 233.531 1200.71 232.924 C 1202.213 232.203 1203.72 232.158 1205.252 232.815 C 1205.819 233.058 1206.416 233.11 1207.024 233.068 C 1207.478 233.035 1207.875 232.864 1208.23 232.492 L 1208.23 232.492 Z  M 1202.692 242.755 C 1201.563 242.746 1201.21 242.885 1200.548 243.559 C 1199.806 244.315 1199.81 245.363 1200.55 246.122 C 1201.112 246.698 1201.813 246.967 1202.592 247.048 C 1203.503 247.142 1204.399 247.104 1205.227 246.648 C 1206.109 246.16 1206.547 245.254 1206.349 244.341 C 1206.185 243.587 1205.63 243.243 1204.954 243.044 C 1204.185 242.819 1203.39 242.776 1202.692 242.755 L 1202.692 242.755 Z  M 1200.476 235.546 C 1200.517 235.859 1200.534 236.176 1200.604 236.483 C 1200.784 237.278 1201.13 237.976 1201.92 238.33 C 1202.849 238.747 1204.034 238.568 1204.441 237.265 C 1204.719 236.372 1204.685 235.486 1204.349 234.615 C 1204.199 234.227 1203.958 233.898 1203.613 233.657 C 1202.807 233.094 1201.352 233.02 1200.76 234.263 C 1200.567 234.667 1200.492 235.097 1200.476 235.546 L 1200.476 235.546 Z " fill-rule="evenodd" fill="rgb(179,173,171)" />
                    <path d=" M 1189.088 232.292 C 1189.118 232.431 1189.178 232.588 1189.18 232.746 C 1189.182 233.046 1189.15 233.346 1189.133 233.646 L 1189.133 233.907 L 1189.387 233.713 C 1190.083 233.14 1190.831 232.652 1191.702 232.389 C 1193.273 231.915 1194.844 232.775 1195.356 234.376 C 1195.55 234.985 1195.627 235.611 1195.634 236.247 C 1195.65 237.66 1195.66 239.073 1195.675 240.486 C 1195.68 240.993 1195.738 241.084 1196.218 241.231 C 1196.49 241.314 1196.771 241.372 1197.051 241.416 C 1197.206 241.44 1197.272 241.501 1197.264 241.652 L 1197.266 241.792 C 1197.26 242.377 1197.22 242.403 1196.652 242.402 C 1195.294 242.399 1193.937 242.407 1192.579 242.419 C 1192.174 242.422 1192.174 242.434 1192.133 242.034 L 1192.125 241.804 C 1192.15 241.46 1192.158 241.463 1192.497 241.413 C 1192.725 241.379 1192.952 241.326 1193.175 241.268 C 1193.404 241.209 1193.514 241.04 1193.545 240.813 C 1193.56 240.698 1193.58 240.583 1193.579 240.468 C 1193.56 238.924 1193.585 237.378 1193.501 235.836 C 1193.433 234.589 1192.481 233.846 1191.229 233.931 C 1190.615 233.974 1190.06 234.179 1189.553 234.533 C 1189.219 234.766 1189.151 235.104 1189.153 235.467 C 1189.16 236.911 1189.173 238.355 1189.189 239.8 C 1189.192 240.116 1189.201 240.433 1189.231 240.747 C 1189.262 241.09 1189.383 241.228 1189.72 241.303 C 1190.042 241.374 1190.37 241.415 1190.714 241.473 L 1190.743 241.738 C 1190.755 242.357 1190.69 242.403 1190.089 242.401 C 1188.684 242.395 1187.28 242.404 1185.877 242.42 C 1185.656 242.423 1185.562 242.353 1185.568 242.138 L 1185.564 242.046 C 1185.528 241.488 1185.544 241.467 1186.072 241.376 L 1186.321 241.326 C 1186.893 241.197 1187.039 241.045 1187.047 240.465 C 1187.074 238.627 1187.084 236.79 1187.102 234.952 C 1187.105 234.688 1187.005 234.483 1186.759 234.374 C 1186.414 234.222 1186.066 234.077 1185.717 233.934 C 1185.525 233.854 1185.305 233.804 1185.297 233.538 C 1185.293 233.35 1185.493 233.184 1185.768 233.128 C 1186.319 233.017 1186.875 232.924 1187.419 232.787 C 1187.962 232.652 1188.494 232.47 1189.088 232.292 Z " fill-rule="evenodd" fill="rgb(179,173,171)" />
                    <path d=" M 1219.451 237.093 C 1219.425 238.81 1218.979 240.198 1217.765 241.24 C 1216.227 242.561 1213.828 243.01 1211.867 242.022 C 1211.03 241.6 1210.415 240.954 1210.015 240.115 C 1209.4 238.824 1209.247 237.466 1209.567 236.076 C 1209.884 234.701 1210.717 233.705 1211.963 233.06 C 1213.245 232.397 1214.595 232.138 1216.019 232.486 C 1217.82 232.925 1219.114 234.393 1219.371 236.263 C 1219.417 236.591 1219.435 236.923 1219.451 237.093 L 1219.451 237.093 Z  M 1217.365 238.023 L 1217.295 238.015 C 1217.295 237.853 1217.304 237.691 1217.294 237.53 C 1217.235 236.521 1217.008 235.56 1216.424 234.716 C 1215.869 233.917 1215.114 233.445 1214.132 233.376 C 1213.032 233.298 1212.108 233.913 1211.783 235.037 C 1211.296 236.723 1211.461 238.367 1212.317 239.912 C 1212.69 240.586 1213.243 241.083 1213.984 241.344 C 1214.709 241.599 1215.394 241.562 1215.944 241.274 C 1216.494 240.987 1216.911 240.45 1217.1 239.707 C 1217.239 239.159 1217.279 238.585 1217.365 238.023 Z " fill-rule="evenodd" fill="rgb(179,173,171)" />
                    <path d=" M 1183.803 237.226 C 1183.773 238.458 1183.482 239.597 1182.721 240.586 C 1181.906 241.647 1180.786 242.213 1179.512 242.452 C 1178.006 242.734 1176.591 242.478 1175.381 241.467 C 1174.807 240.986 1174.414 240.37 1174.155 239.669 C 1173.73 238.52 1173.624 237.343 1173.886 236.142 C 1174.165 234.858 1174.89 233.876 1176.014 233.217 C 1177.314 232.457 1178.717 232.118 1180.215 232.46 C 1182.141 232.9 1183.253 234.155 1183.664 236.056 C 1183.747 236.439 1183.758 236.836 1183.803 237.226 L 1183.803 237.226 Z  M 1181.693 238.039 L 1181.638 238.031 L 1181.638 237.799 C 1181.606 236.669 1181.385 235.593 1180.711 234.654 C 1180.211 233.957 1179.543 233.52 1178.686 233.398 C 1177.289 233.199 1176.376 234.028 1176.073 235.153 C 1175.808 236.142 1175.777 237.124 1175.971 238.084 C 1176.065 238.552 1176.213 239.015 1176.413 239.471 C 1176.794 240.34 1177.397 241.018 1178.322 241.346 C 1179.764 241.859 1181.07 241.18 1181.435 239.7 C 1181.57 239.159 1181.61 238.594 1181.693 238.039 L 1181.693 238.039 Z " fill-rule="evenodd" fill="rgb(179,173,171)" />
                    <path d=" M 1217.425 174.429 C 1218.418 177.3 1219.132 180.231 1219.367 183.267 C 1219.659 187.036 1219.526 190.778 1218.731 194.484 L 1218.629 194.78 C 1218.38 194.781 1218.126 194.749 1217.882 194.787 C 1215.824 195.111 1213.768 195.446 1211.712 195.78 C 1209.586 196.125 1207.458 196.456 1205.336 196.823 C 1204.584 196.952 1203.653 196.798 1203.35 197.837 L 1203.204 197.886 L 1203.307 191.672 L 1203.202 176.679 L 1204.193 176.509 C 1205.813 176.244 1207.432 175.974 1209.054 175.716 C 1210.988 175.409 1212.924 175.11 1214.86 174.811 C 1215.715 174.679 1216.57 174.557 1217.425 174.429 L 1217.425 174.429 Z " fill-rule="evenodd" fill="rgb(67,153,52)" />
                    <path d=" M 1201.16 216.003 C 1200.115 215.104 1199.033 214.246 1198.032 213.3 C 1192.644 208.218 1188.701 202.234 1186.76 195.021 C 1186.225 193.036 1185.869 191.018 1185.754 188.968 C 1185.673 187.532 1185.557 186.084 1185.659 184.655 C 1185.929 180.857 1186.478 177.095 1187.592 173.436 L 1187.653 173.351 C 1187.762 173.495 1187.917 173.623 1187.972 173.786 C 1189.06 176.988 1190.139 180.193 1191.213 183.4 C 1194.587 193.477 1197.957 203.557 1201.337 213.632 C 1201.403 213.829 1201.574 213.99 1201.697 214.167 L 1201.16 216.003 Z " fill-rule="evenodd" fill="rgb(69,165,56)" />
                    <path d=" M 1217.425 174.429 C 1216.569 174.556 1215.714 174.679 1214.86 174.811 C 1212.924 175.11 1210.988 175.409 1209.054 175.716 C 1207.433 175.974 1205.813 176.243 1204.193 176.509 L 1203.202 176.679 L 1203.194 176.033 C 1203.161 175.502 1203.106 174.971 1203.099 174.44 L 1202.988 164.279 C 1202.962 162.16 1202.923 160.04 1202.88 157.921 C 1202.854 156.604 1202.825 155.287 1202.766 153.972 C 1202.734 153.265 1202.62 152.562 1202.574 151.855 C 1202.548 151.449 1202.583 151.039 1202.592 150.632 C 1203.097 151.61 1203.592 152.596 1204.11 153.567 C 1204.93 155.102 1206.237 156.234 1207.415 157.468 C 1212.065 162.349 1215.367 168.021 1217.425 174.429 L 1217.425 174.429 Z " fill-rule="evenodd" fill="rgb(70,160,55)" />
                    <path d=" M 1203.205 197.886 L 1203.35 197.837 C 1203.654 196.798 1204.585 196.952 1205.337 196.823 C 1207.459 196.456 1209.586 196.125 1211.713 195.78 C 1213.769 195.447 1215.825 195.112 1217.883 194.787 C 1218.127 194.749 1218.381 194.781 1218.63 194.78 C 1218.246 196.153 1217.943 197.555 1217.455 198.89 C 1216.9 200.404 1216.23 201.881 1215.519 203.33 C 1214.455 205.495 1213.131 207.515 1211.591 209.366 C 1210.405 210.792 1209.082 212.112 1207.757 213.414 C 1207.024 214.134 1206.161 214.721 1205.357 215.368 L 1205.148 215.226 L 1204.398 214.585 L 1203.622 212.882 C 1203.087 210.889 1202.807 208.861 1202.76 206.799 L 1202.774 206.453 L 1202.88 204.952 C 1202.915 204.44 1202.962 203.928 1202.984 203.416 C 1203.062 201.574 1203.131 199.73 1203.205 197.886 L 1203.205 197.886 Z " fill-rule="evenodd" fill="rgb(64,148,51)" />
                    <path d=" M 1203.205 197.886 C 1203.132 199.73 1203.062 201.575 1202.984 203.418 C 1202.962 203.931 1202.916 204.443 1202.88 204.954 L 1202.408 205.133 C 1201.357 202.041 1200.306 198.981 1199.278 195.913 C 1197.577 190.838 1195.898 185.755 1194.2 180.678 C 1192.83 176.581 1191.448 172.487 1190.058 168.396 C 1189.992 168.205 1189.806 168.054 1189.677 167.885 L 1192.704 162.319 C 1192.808 162.5 1192.945 162.669 1193.01 162.863 C 1194.411 167.007 1195.808 171.152 1197.194 175.3 C 1198.997 180.699 1200.788 186.099 1202.59 191.498 C 1202.662 191.714 1202.78 191.913 1202.893 192.155 L 1203.308 191.672 C 1203.273 193.744 1203.239 195.815 1203.205 197.886 Z " fill-rule="evenodd" fill="rgb(79,170,65)" />
                    <path d=" M 1189.676 167.885 C 1189.806 168.054 1189.992 168.205 1190.057 168.396 C 1191.447 172.487 1192.829 176.581 1194.199 180.678 C 1195.897 185.755 1197.577 190.838 1199.277 195.913 C 1200.305 198.981 1201.356 202.04 1202.407 205.133 L 1202.879 204.954 L 1202.773 206.455 L 1202.677 206.801 C 1202.513 208.443 1202.374 210.088 1202.174 211.727 C 1202.073 212.548 1201.859 213.355 1201.696 214.167 C 1201.574 213.99 1201.402 213.829 1201.336 213.632 C 1197.955 203.557 1194.586 193.477 1191.212 183.4 C 1190.138 180.193 1189.058 176.988 1187.971 173.786 C 1187.916 173.623 1187.761 173.495 1187.653 173.351 L 1189.676 167.885 Z " fill-rule="evenodd" fill="rgb(74,167,60)" />
                    <path d=" M 1203.307 191.672 L 1202.892 192.155 C 1202.779 191.913 1202.661 191.714 1202.589 191.498 C 1200.787 186.099 1198.996 180.699 1197.193 175.3 C 1195.807 171.152 1194.41 167.007 1193.01 162.863 C 1192.944 162.669 1192.807 162.5 1192.703 162.319 L 1196.446 157.395 C 1196.564 157.552 1196.733 157.692 1196.793 157.869 C 1197.832 160.913 1198.862 163.958 1199.887 167.006 C 1200.843 169.853 1201.785 172.704 1202.753 175.546 C 1202.818 175.736 1203.044 175.871 1203.194 176.033 L 1203.202 176.679 L 1203.307 191.672 L 1203.307 191.672 Z " fill-rule="evenodd" fill="rgb(87,174,71)" />
                    <path d=" M 1203.194 176.033 C 1203.043 175.872 1202.818 175.737 1202.753 175.546 C 1201.786 172.704 1200.843 169.853 1199.887 167.006 C 1198.862 163.958 1197.832 160.913 1196.793 157.869 C 1196.733 157.692 1196.564 157.552 1196.446 157.395 C 1197.663 156.203 1198.842 154.968 1200.109 153.831 C 1201.235 152.821 1202.14 151.738 1202.182 150.141 L 1202.271 149.823 L 1202.591 150.631 C 1202.583 151.039 1202.547 151.448 1202.574 151.854 C 1202.62 152.561 1202.734 153.264 1202.765 153.971 C 1202.824 155.286 1202.853 156.604 1202.879 157.92 C 1202.922 160.039 1202.961 162.159 1202.987 164.279 L 1203.098 174.439 C 1203.106 174.971 1203.162 175.502 1203.194 176.033 L 1203.194 176.033 Z " fill-rule="evenodd" fill="rgb(96,178,79)" />
                    <path d=" M 1201.697 214.166 C 1201.86 213.354 1202.074 212.548 1202.175 211.726 C 1202.375 210.088 1202.514 208.442 1202.678 206.8 L 1202.719 206.793 L 1202.76 206.801 C 1202.807 208.863 1203.087 210.891 1203.622 212.884 C 1203.512 213.028 1203.359 213.155 1203.301 213.317 C 1202.852 214.584 1202.428 215.862 1201.976 217.129 C 1201.915 217.302 1201.742 217.437 1201.621 217.588 L 1201.159 216.002 L 1201.697 214.166 Z " fill-rule="evenodd" fill="rgb(169,170,136)" />
                    <path d=" M 1201.621 217.589 C 1201.742 217.437 1201.915 217.303 1201.976 217.129 C 1202.428 215.863 1202.852 214.585 1203.301 213.317 C 1203.359 213.155 1203.512 213.028 1203.622 212.884 L 1204.398 214.587 C 1204.245 214.804 1204.033 215.001 1203.948 215.243 L 1202.462 219.607 C 1202.4 219.782 1202.192 219.905 1202.052 220.053 L 1201.621 217.589 L 1201.621 217.589 Z " fill-rule="evenodd" fill="rgb(182,181,152)" />
                    <path d=" M 1202.052 220.053 C 1202.192 219.905 1202.4 219.782 1202.462 219.606 L 1203.948 215.242 C 1204.032 215 1204.245 214.803 1204.398 214.586 L 1205.149 215.227 C 1204.786 215.585 1204.585 215.999 1204.706 216.523 L 1204.478 217.27 C 1204.374 217.398 1204.224 217.51 1204.173 217.656 C 1203.654 219.142 1203.159 220.636 1202.637 222.121 C 1202.57 222.309 1202.387 222.457 1202.258 222.624 L 1202.052 220.053 L 1202.052 220.053 Z " fill-rule="evenodd" fill="rgb(194,193,167)" />
                    <path d=" M 1202.257 222.623 C 1202.387 222.456 1202.57 222.308 1202.636 222.121 C 1203.159 220.635 1203.654 219.141 1204.172 217.655 C 1204.223 217.509 1204.373 217.398 1204.477 217.269 L 1204.162 220.698 C 1204.078 220.795 1203.957 220.88 1203.916 220.992 L 1202.869 223.993 C 1202.795 224.198 1202.654 224.381 1202.544 224.573 C 1202.446 224.445 1202.272 224.321 1202.264 224.188 C 1202.233 223.669 1202.255 223.145 1202.257 222.623 L 1202.257 222.623 Z " fill-rule="evenodd" fill="rgb(206,205,183)" />
                    <path d=" M 1202.545 224.574 C 1202.655 224.382 1202.796 224.199 1202.87 223.994 L 1203.917 220.993 C 1203.957 220.88 1204.08 220.796 1204.163 220.698 L 1204.171 222.948 L 1203.418 224.88 L 1202.545 224.574 Z " fill-rule="evenodd" fill="rgb(219,218,199)" />
                    <path d=" M 1203.418 224.88 L 1204.171 222.948 L 1204.327 225.234 L 1203.418 224.88 L 1203.418 224.88 Z " fill-rule="evenodd" fill="rgb(235,233,220)" />
                    <path d=" M 1204.705 216.523 C 1204.585 216 1204.785 215.586 1205.148 215.227 L 1205.357 215.369 L 1204.705 216.523 L 1204.705 216.523 Z " fill-rule="evenodd" fill="rgb(206,205,183)" />
                    <path d=" M 1202.76 206.801 L 1202.719 206.794 L 1202.678 206.801 L 1202.774 206.455 L 1202.76 206.801 L 1202.76 206.801 Z " fill-rule="evenodd" fill="rgb(79,170,65)" />
                </g>
                <path d=" M 652.258 171.973 L 616.754 151.357 C 614.515 150.082 611.6 150.082 609.343 151.357 L 573.46 171.973 C 571.15 173.302 569.514 175.8 569.514 178.472 L 569.514 219.648 C 569.514 222.32 571.192 224.819 573.503 226.156 L 582.983 231.54 C 587.515 233.772 589.116 233.772 591.178 233.772 C 597.887 233.772 601.719 229.715 601.719 222.639 L 601.719 181.988 C 601.719 181.414 601.421 180.56 600.857 180.56 L 596.33 180.56 C 595.757 180.56 594.473 181.414 594.473 181.988 L 594.473 222.638 C 594.473 225.775 591.636 228.896 586.333 226.245 L 576.538 220.599 C 576.196 220.414 575.955 220.041 575.955 219.648 L 575.955 178.472 C 575.955 178.084 576.402 177.695 576.746 177.496 L 612.513 156.916 C 612.847 156.727 613.338 156.727 613.671 156.916 L 649.002 177.491 C 649.34 177.695 649.221 178.072 649.221 178.472 L 649.221 219.648 C 649.221 220.041 649.368 220.423 649.034 220.612 L 613.539 241.204 C 613.235 241.387 612.857 241.387 612.524 241.204 L 603.421 235.771 C 603.146 235.611 602.82 235.554 602.557 235.701 C 600.024 237.137 599.557 237.328 597.181 238.151 C 596.596 238.355 595.734 238.708 597.511 239.704 L 609.425 246.752 C 610.566 247.413 611.862 247.756 613.167 247.756 C 614.489 247.756 615.783 247.413 616.924 246.752 L 652.257 226.156 C 654.568 224.81 655.663 222.32 655.663 219.648 L 655.663 178.472 C 655.663 175.8 654.568 173.308 652.258 171.973 L 652.258 171.973 Z  M 624.19 213.123 C 614.749 213.123 612.67 210.519 611.977 205.824 C 611.896 205.318 611.467 204.714 610.952 204.714 L 606.338 204.714 C 605.767 204.714 605.309 205.406 605.309 205.975 C 605.309 211.986 608.577 219.269 624.191 219.269 C 635.494 219.269 641.975 214.877 641.975 207.104 C 641.975 199.398 636.768 197.375 625.806 195.924 C 614.726 194.46 613.601 193.72 613.601 191.124 C 613.601 188.984 614.554 186.13 622.758 186.13 C 630.089 186.13 632.791 187.703 633.902 192.644 C 633.997 193.109 634.422 193.442 634.901 193.442 L 639.534 193.442 C 639.819 193.442 640.091 193.327 640.29 193.123 C 640.484 192.904 640.586 192.63 640.56 192.335 C 639.843 183.826 634.19 179.861 622.757 179.861 C 612.588 179.861 606.521 184.156 606.521 191.354 C 606.521 199.162 612.557 201.32 622.319 202.285 C 633.997 203.43 634.906 205.137 634.906 207.434 C 634.906 211.424 631.703 213.123 624.19 213.123 Z " fill="rgb(131,205,41)" />
                <g id="react">
                    <path d=" M 737.81 185.841 C 737.81 181.769 741.116 178.463 745.188 178.463 C 749.26 178.463 752.566 181.769 752.566 185.841 C 752.566 189.913 749.26 193.219 745.188 193.219 C 741.116 193.219 737.81 189.913 737.81 185.841 Z " fill="rgb(97,218,251)" />
                    <path d=" M 745.188 212.974 C 750.98 218.607 756.692 221.939 761.293 221.939 C 762.801 221.939 764.229 221.621 765.419 220.907 C 769.544 218.527 771.052 212.577 769.624 204.088 C 769.386 202.581 769.068 201.073 768.671 199.487 C 770.258 199.011 771.686 198.535 773.114 198.059 C 781.127 194.965 785.57 190.68 785.57 186 C 785.57 181.24 781.127 176.955 773.114 173.941 C 771.686 173.385 770.258 172.909 768.671 172.513 C 769.068 170.926 769.386 169.418 769.624 167.911 C 770.972 159.263 769.465 153.234 765.339 150.854 C 764.149 150.14 762.721 149.823 761.214 149.823 C 756.692 149.823 750.9 153.155 745.109 158.787 C 739.397 153.155 733.684 149.823 729.083 149.823 C 727.576 149.823 726.147 150.14 724.957 150.854 C 720.832 153.234 719.325 159.184 720.753 167.673 C 720.991 169.18 721.308 170.688 721.705 172.275 C 720.118 172.751 718.69 173.227 717.262 173.703 C 709.249 176.797 704.806 181.081 704.806 185.762 C 704.806 190.522 709.249 194.806 717.262 197.821 C 718.69 198.376 720.118 198.852 721.705 199.249 C 721.308 200.835 720.991 202.343 720.753 203.85 C 719.404 212.339 720.911 218.369 724.957 220.669 C 726.147 221.383 727.576 221.701 729.083 221.701 C 733.684 221.859 739.397 218.527 745.188 212.974 L 745.188 212.974 Z  M 740.745 202.263 C 742.173 202.343 743.681 202.343 745.188 202.343 C 746.695 202.343 748.203 202.343 749.631 202.263 C 748.203 204.168 746.695 205.913 745.188 207.579 C 743.681 205.913 742.173 204.168 740.745 202.263 Z  M 730.908 194.092 C 731.701 195.441 732.415 196.71 733.288 197.979 C 730.828 197.662 728.528 197.265 726.306 196.789 C 727.02 194.647 727.814 192.426 728.766 190.204 C 729.4 191.474 730.114 192.823 730.908 194.092 Z  M 726.306 174.972 C 728.528 174.496 730.828 174.099 733.288 173.782 C 732.494 175.051 731.701 176.321 730.908 177.669 C 730.114 179.018 729.4 180.287 728.766 181.636 C 727.734 179.335 726.941 177.114 726.306 174.972 Z  M 730.67 185.841 C 731.701 183.699 732.812 181.557 734.081 179.415 C 735.271 177.352 736.62 175.289 737.969 173.227 C 740.349 173.068 742.729 172.989 745.188 172.989 C 747.727 172.989 750.107 173.068 752.408 173.227 C 753.836 175.289 755.105 177.352 756.295 179.415 C 757.564 181.557 758.675 183.699 759.707 185.841 C 758.675 187.983 757.564 190.125 756.295 192.267 C 755.105 194.33 753.756 196.393 752.408 198.455 C 750.028 198.614 747.647 198.693 745.188 198.693 C 742.649 198.693 740.269 198.614 737.969 198.455 C 736.54 196.393 735.271 194.33 734.081 192.267 C 732.812 190.125 731.701 187.983 730.67 185.841 Z  M 761.69 181.557 L 759.548 177.59 C 758.755 176.241 758.04 174.972 757.168 173.703 C 759.627 174.02 761.928 174.417 764.149 174.893 C 763.435 177.114 762.642 179.335 761.69 181.557 Z  M 761.69 190.125 C 762.642 192.347 763.435 194.568 764.149 196.71 C 761.928 197.186 759.627 197.583 757.168 197.9 C 757.961 196.631 758.755 195.361 759.548 194.013 C 760.262 192.823 760.976 191.474 761.69 190.125 Z  M 763.515 217.655 C 762.88 218.051 762.087 218.21 761.214 218.21 C 757.326 218.21 752.487 215.037 747.727 210.276 C 750.028 207.817 752.249 205.04 754.47 201.946 C 758.199 201.629 761.769 201.073 765.101 200.28 C 765.498 201.708 765.736 203.136 765.974 204.564 C 767.085 211.308 766.212 216.147 763.515 217.655 L 763.515 217.655 Z  M 767.64 175.845 C 776.526 178.383 781.841 182.271 781.841 185.841 C 781.841 188.935 778.192 192.029 771.766 194.489 C 770.496 194.965 769.068 195.441 767.64 195.837 C 766.609 192.585 765.339 189.252 763.753 185.841 C 765.339 182.43 766.688 179.097 767.64 175.845 Z  M 761.293 153.472 C 762.166 153.472 762.88 153.631 763.594 154.027 C 766.212 155.535 767.164 160.295 766.053 167.118 C 765.815 168.466 765.498 169.894 765.181 171.402 C 761.849 170.688 758.278 170.132 754.55 169.736 C 752.408 166.642 750.107 163.865 747.806 161.406 C 752.566 156.725 757.406 153.472 761.293 153.472 Z  M 749.631 169.418 C 748.203 169.339 746.695 169.339 745.188 169.339 C 743.681 169.339 742.173 169.339 740.745 169.418 C 742.173 167.514 743.681 165.769 745.188 164.103 C 746.695 165.769 748.203 167.594 749.631 169.418 Z  M 726.862 154.027 C 727.496 153.631 728.29 153.472 729.162 153.472 C 733.05 153.472 737.889 156.645 742.649 161.406 C 740.349 163.865 738.127 166.642 735.906 169.736 C 732.177 170.053 728.607 170.609 725.275 171.402 C 724.878 169.974 724.64 168.546 724.402 167.118 C 723.291 160.374 724.164 155.614 726.862 154.027 Z  M 722.736 195.837 C 713.85 193.299 708.535 189.411 708.535 185.841 C 708.535 182.747 712.184 179.653 718.611 177.193 C 719.88 176.717 721.308 176.241 722.736 175.845 C 723.767 179.097 725.037 182.43 726.624 185.841 C 725.037 189.252 723.688 192.664 722.736 195.837 Z  M 724.402 204.564 C 724.64 203.216 724.957 201.787 725.275 200.28 C 728.607 200.994 732.177 201.549 735.906 201.946 C 738.048 205.04 740.349 207.817 742.649 210.276 C 737.889 214.957 733.05 218.21 729.162 218.21 C 728.29 218.21 727.576 218.051 726.862 217.655 C 724.164 216.147 723.291 211.308 724.402 204.564 L 724.402 204.564 Z  M 721.07 237.251 C 722.815 235.109 722.895 232.728 721.943 230.348 C 720.991 227.968 719.007 226.858 716.548 226.778 C 713.612 226.699 710.598 226.778 707.662 226.778 L 707.107 226.778 L 707.107 247.326 L 709.487 247.326 L 709.487 239.551 L 713.216 239.551 C 713.692 239.551 714.088 239.71 714.326 240.107 L 719.087 247.485 C 719.166 247.644 719.404 247.882 719.563 247.882 L 722.657 247.882 C 720.753 244.946 718.928 242.169 717.024 239.313 C 718.69 239.075 720.118 238.52 721.07 237.251 L 721.07 237.251 Z  M 709.487 237.092 L 709.487 229.238 L 710.36 229.238 C 712.184 229.238 714.088 229.158 715.913 229.317 C 718.055 229.396 719.563 231.062 719.563 233.204 C 719.563 235.347 717.817 237.013 715.675 237.092 C 713.771 237.171 711.867 237.092 709.487 237.092 Z  M 740.19 238.123 C 738.921 232.57 733.843 231.142 729.956 232.887 C 726.941 234.236 725.592 236.854 725.513 240.107 C 725.433 242.566 726.147 244.787 728.052 246.454 C 730.194 248.358 732.812 248.596 735.509 248.12 C 737.017 247.802 738.365 247.088 739.397 245.978 C 739 245.422 738.603 244.867 738.207 244.391 C 735.985 246.295 733.526 246.93 730.828 245.66 C 729.083 244.787 728.21 242.645 728.052 241.059 L 740.349 241.059 L 740.349 240.027 C 740.428 239.313 740.349 238.679 740.19 238.123 L 740.19 238.123 Z  M 728.21 239.393 C 727.972 237.013 730.352 234.474 732.97 234.474 C 735.985 234.394 737.889 236.219 737.969 239.393 L 728.21 239.393 Z  M 752.566 232.49 C 751.376 232.252 750.107 232.173 748.917 232.252 C 747.013 232.411 745.347 233.284 743.998 234.712 C 744.395 235.267 744.712 235.823 745.188 236.457 C 745.347 236.299 745.505 236.14 745.664 236.061 C 746.933 234.871 748.441 234.236 750.266 234.394 C 751.694 234.474 753.042 234.95 753.439 236.378 C 753.756 237.489 753.677 238.679 753.756 239.869 C 753.518 239.869 753.439 239.789 753.36 239.71 C 751.456 238.123 749.314 237.806 747.013 238.361 C 744.871 238.917 743.522 240.583 743.363 242.725 C 743.205 245.184 744.315 247.009 746.457 247.882 C 747.806 248.437 749.314 248.437 750.742 248.12 C 751.852 247.882 752.328 247.247 753.915 246.374 L 753.915 247.406 L 756.136 247.406 C 756.136 244.232 756.216 240.345 756.136 236.695 C 756.136 234.394 754.788 232.966 752.566 232.49 Z  M 753.677 242.487 C 753.598 242.725 753.677 242.963 753.677 243.201 C 753.677 244.867 753.28 245.422 751.694 246.057 C 750.583 246.454 749.393 246.612 748.203 246.216 C 746.854 245.819 745.902 244.629 745.902 243.28 C 745.823 241.931 746.695 240.583 748.044 240.186 C 749.869 239.551 751.535 239.948 753.042 241.059 C 753.518 241.455 753.836 241.852 753.677 242.487 L 753.677 242.487 Z  M 766.053 234.633 C 768.116 233.998 770.02 234.394 771.448 236.14 L 771.686 236.299 C 772.242 235.823 772.718 235.347 773.352 234.791 C 773.114 234.553 773.035 234.394 772.876 234.156 C 770.576 231.697 766.053 231.38 763.277 233.363 C 759.389 236.219 759.469 241.773 761.373 244.708 C 763.197 247.485 765.815 248.437 768.909 248.04 C 770.734 247.802 772.242 246.93 773.432 245.422 C 772.876 244.946 772.321 244.47 771.766 243.915 C 771.607 244.073 771.528 244.153 771.448 244.311 C 769.306 246.692 765.736 246.454 763.832 243.915 C 762.721 242.407 762.483 240.662 762.801 238.917 C 762.959 236.933 763.991 235.347 766.053 234.633 Z  M 782.555 245.422 C 782.397 245.502 782.317 245.581 782.317 245.581 C 781.683 246.057 781.048 246.136 780.334 245.898 C 779.62 245.581 779.54 244.946 779.461 244.311 L 779.461 235.267 C 779.461 235.109 779.461 235.426 779.54 234.633 L 782.555 234.633 L 782.555 232.252 L 779.382 232.252 L 779.382 228.286 L 777.002 228.286 L 777.002 232.57 L 774.939 232.57 C 774.78 232.57 774.542 232.728 774.542 232.887 C 774.463 233.442 774.542 233.839 774.542 234.633 L 777.081 234.633 L 777.081 244.787 C 777.081 246.057 777.398 247.168 778.509 247.802 C 779.699 248.516 782 248.358 783.031 247.485 C 783.19 247.406 783.269 247.088 783.269 247.009 C 783.031 246.533 782.793 245.978 782.555 245.422 L 782.555 245.422 Z " fill="rgb(97,218,251)" />
                </g>
            </g>
        </g>
    </g>
</svg>