<?xml version="1.0" standalone="no"?><!-- Generator: Gravit.io --><svg xmlns="http://www.w3.org/2000/svg" xmlns:xlink="http://www.w3.org/1999/xlink" style="isolation:isolate" viewBox="93.978 67 1336.022 883" width="1336.022" height="883"><g id="Group"><g id="BROWSER_WINDOW"><g id="Group"><path d="M 104.081 67 L 1419.896 67 C 1425.473 67 1430 71.527 1430 77.104 L 1430 137 L 93.978 137 L 93.978 77.104 C 93.978 71.527 98.505 67 104.081 67 Z" style="stroke:none;fill:#E8E8E8;stroke-miterlimit:10;"/><g id="Group"><path d=" M 142.087 102 C 142.087 96.294 146.212 91.662 151.294 91.662 C 156.375 91.662 160.501 96.294 160.501 102 C 160.501 107.706 156.375 112.338 151.294 112.338 C 146.212 112.338 142.087 107.706 142.087 102 Z " fill="rgb(229,173,45)"/><path d=" M 114.978 102 C 114.978 96.294 119.103 91.662 124.184 91.662 C 129.266 91.662 133.391 96.294 133.391 102 C 133.391 107.706 129.266 112.338 124.184 112.338 C 119.103 112.338 114.978 107.706 114.978 102 Z " fill="rgb(232,112,79)"/><path d=" M 167.15 102 C 167.15 96.294 171.275 91.662 176.357 91.662 C 181.438 91.662 185.564 96.294 185.564 102 C 185.564 107.706 181.438 112.338 176.357 112.338 C 171.275 112.338 167.15 107.706 167.15 102 Z " fill="rgb(134,197,59)"/></g><rect x="198.978" y="84.5" width="1202.978" height="35" transform="matrix(1,0,0,1,0,0)" fill="rgb(255,255,255)"/></g><rect x="93.978" y="137" width="1336.022" height="813" transform="matrix(1,0,0,1,0,0)" fill="rgb(26,56,74)"/></g><g id="t_skillset_text"><g transform="matrix(1,0,0,1,93.978,228)"><text transform="matrix(1,0,0,1,24.024,48.464)" style="font-family:&quot;Ubuntu&quot;;font-weight:400;font-size:52px;font-style:normal;fill:#26e46a;stroke:none;">~/tech-stack </text><text transform="matrix(1,0,0,1,327.288,48.464)" style="font-family:&quot;Ubuntu Light&quot;;font-weight:700;font-size:52px;font-style:normal;fill:#26e46a;stroke:none;">$  </text></g></g><g id="Group"><g id="t_skillset_text"><g transform="matrix(1,0,0,1,93.978,330)"><text transform="matrix(1,0,0,1,24.024,48.464)" style="font-family:&quot;Ubuntu&quot;;font-weight:400;font-size:52px;font-style:normal;fill:#26e46a;stroke:none;">~/tech-stack </text><text transform="matrix(1,0,0,1,327.288,48.464)" style="font-family:&quot;Ubuntu Light&quot;;font-weight:700;font-size:52px;font-style:normal;fill:#26e46a;stroke:none;">$  </text></g></g><rect x="499.478" y="330" width="26" height="60" transform="matrix(1,0,0,1,0,0)" fill="rgb(38,228,106)"/></g><g id="Group"><g id="angularjs"><path d=" M 845.837 214.369 L 805.585 228.535 L 811.945 281.272 L 845.88 299.923 L 879.989 281.02 L 886.347 228.284 L 845.837 214.369 Z " fill="rgb(179,179,179)"/><path d=" M 882.331 231.332 L 845.743 218.855 L 845.743 295.466 L 876.406 278.496 L 882.331 231.332 Z " fill="rgb(166,18,13)"/><path d=" M 810.101 231.557 L 815.553 278.722 L 845.742 295.466 L 845.742 218.853 L 810.101 231.557 Z " fill="rgb(221,27,22)"/><path d=" M 855.815 259.639 L 845.743 264.349 L 835.127 264.349 L 830.137 276.83 L 820.856 277.002 L 845.743 221.636 L 855.815 259.639 Z  M 854.841 257.268 L 845.81 239.388 L 838.401 256.96 L 845.742 256.96 L 854.841 257.268 Z " fill="rgb(242,242,242)"/><path d=" M 845.742 221.636 L 845.809 239.388 L 854.215 256.973 L 845.761 256.973 L 845.742 264.337 L 857.432 264.349 L 862.895 277.004 L 871.775 277.168 L 845.742 221.636 Z " fill="rgb(179,179,179)"/></g><g id="docker"><path d=" M 979.892 242.815 L 991.532 242.815 L 991.532 254.661 L 997.403 254.661 C 1000.081 254.661 1002.862 254.146 1005.437 253.322 C 1006.673 252.91 1008.115 252.292 1009.351 251.571 C 1007.703 249.407 1006.879 246.729 1006.673 244.051 C 1006.364 240.446 1007.085 235.708 1009.557 232.927 L 1010.793 231.485 L 1012.235 232.618 C 1015.943 235.605 1018.931 239.622 1019.549 244.36 C 1023.978 243.021 1029.128 243.33 1033.042 245.596 L 1034.587 246.523 L 1033.763 248.171 C 1030.467 254.558 1023.566 256.618 1016.87 256.206 C 1006.776 281.236 984.939 293.081 958.364 293.081 C 944.665 293.081 932.098 287.931 924.888 275.776 L 924.785 275.57 L 923.755 273.407 C 921.283 268.051 920.562 262.18 921.077 256.309 L 921.283 254.558 L 931.171 254.558 L 931.171 242.815 L 942.811 242.815 L 942.811 231.279 L 965.987 231.279 L 965.987 219.639 L 979.892 219.639 L 979.892 242.815 L 979.892 242.815 Z " fill-rule="evenodd" fill="rgb(58,77,84)"/><path d=" M 1017.591 247.244 C 1018.415 241.167 1013.883 236.429 1010.999 234.163 C 1007.806 237.871 1007.291 247.759 1012.338 251.88 C 1009.454 254.352 1003.583 256.721 997.403 256.721 L 923.034 256.721 C 922.416 263.107 923.549 268.978 926.124 274.025 L 926.948 275.57 C 927.463 276.497 928.081 277.321 928.699 278.249 C 931.789 278.455 934.57 278.558 937.146 278.455 C 942.193 278.352 946.313 277.733 949.506 276.703 C 950.021 276.497 950.433 276.806 950.639 277.218 C 950.845 277.733 950.536 278.145 950.124 278.352 C 949.712 278.455 949.3 278.661 948.785 278.764 C 946.313 279.485 943.635 279.897 940.236 280.103 L 939.618 280.103 C 938.279 280.206 936.837 280.206 935.292 280.206 C 933.643 280.206 932.098 280.206 930.244 280.103 C 936.425 287.107 946.107 291.227 958.261 291.227 C 984.012 291.227 1005.849 279.794 1015.428 254.249 C 1022.33 254.97 1028.922 253.219 1031.909 247.347 C 1027.274 244.566 1021.094 245.493 1017.591 247.244 L 1017.591 247.244 Z " fill="rgb(0,170,218)"/><path d=" M 1017.591 247.244 C 1018.415 241.167 1013.883 236.429 1010.999 234.163 C 1007.806 237.871 1007.291 247.759 1012.338 251.88 C 1009.454 254.352 1003.583 256.721 997.403 256.721 L 927.36 256.721 C 927.051 266.506 930.656 273.922 937.146 278.352 C 942.193 278.249 946.313 277.63 949.506 276.6 C 950.021 276.394 950.433 276.703 950.639 277.115 C 950.845 277.63 950.536 278.042 950.124 278.249 C 949.712 278.352 949.3 278.558 948.785 278.661 C 946.313 279.382 943.429 279.897 940.03 280.103 L 939.927 280 C 948.682 284.532 961.351 284.429 975.978 278.867 C 992.253 272.583 1007.497 260.635 1018.106 247.038 C 1017.9 247.141 1017.694 247.141 1017.591 247.244 L 1017.591 247.244 Z " fill="rgb(40,184,235)"/><path d=" M 923.137 264.446 C 923.549 267.845 924.579 271.038 926.124 274.025 L 926.948 275.57 C 927.463 276.497 928.081 277.321 928.699 278.249 C 931.789 278.455 934.57 278.558 937.146 278.455 C 942.193 278.352 946.313 277.733 949.506 276.703 C 950.021 276.497 950.433 276.806 950.639 277.218 C 950.845 277.733 950.536 278.145 950.124 278.352 C 949.712 278.455 949.3 278.661 948.785 278.764 C 946.313 279.485 943.429 280 940.03 280.206 L 939.618 280.206 C 938.279 280.309 936.837 280.309 935.395 280.309 C 933.746 280.309 932.098 280.309 930.347 280.206 C 936.528 287.21 946.313 291.33 958.467 291.33 C 980.51 291.33 999.669 282.987 1010.793 264.549 L 923.137 264.549 L 923.137 264.446 Z " fill="rgb(2,139,184)"/><path d=" M 928.081 264.446 C 929.42 270.42 932.51 275.158 937.146 278.352 C 942.193 278.249 946.313 277.63 949.506 276.6 C 950.021 276.394 950.433 276.703 950.639 277.115 C 950.845 277.63 950.536 278.042 950.124 278.249 C 949.712 278.352 949.3 278.558 948.785 278.661 C 946.313 279.382 943.429 279.897 939.927 280.103 C 948.682 284.635 961.351 284.532 975.875 278.97 C 984.63 275.57 993.18 270.523 1000.802 264.446 L 928.081 264.446 L 928.081 264.446 Z " fill="rgb(1,155,198)"/><path d=" M 933.128 244.772 L 943.223 244.772 L 943.223 254.867 L 933.128 254.867 L 933.128 244.772 Z  M 933.952 245.596 L 934.777 245.596 L 934.777 253.94 L 933.952 253.94 L 933.952 245.596 Z  M 935.395 245.596 L 936.219 245.596 L 936.219 253.94 L 935.395 253.94 L 935.395 245.596 Z  M 936.94 245.596 L 937.764 245.596 L 937.764 253.94 L 936.94 253.94 L 936.94 245.596 Z  M 938.485 245.596 L 939.309 245.596 L 939.309 253.94 L 938.485 253.94 L 938.485 245.596 Z  M 940.03 245.596 L 940.854 245.596 L 940.854 253.94 L 940.03 253.94 L 940.03 245.596 Z  M 941.575 245.596 L 942.399 245.596 L 942.399 253.94 L 941.575 253.94 L 941.575 245.596 Z  M 944.665 233.236 L 954.759 233.236 L 954.759 243.33 L 944.665 243.33 L 944.665 233.236 Z  M 945.592 234.06 L 946.416 234.06 L 946.416 242.403 L 945.592 242.403 L 945.592 234.06 Z  M 947.034 234.06 L 947.858 234.06 L 947.858 242.403 L 947.034 242.403 L 947.034 234.06 Z  M 948.579 234.06 L 949.403 234.06 L 949.403 242.403 L 948.579 242.403 L 948.579 234.06 Z  M 950.124 234.06 L 950.948 234.06 L 950.948 242.403 L 950.124 242.403 L 950.124 234.06 Z  M 951.566 234.06 L 952.39 234.06 L 952.39 242.403 L 951.566 242.403 L 951.566 234.06 Z  M 953.111 234.06 L 953.935 234.06 L 953.935 242.403 L 953.111 242.403 L 953.111 234.06 Z " fill-rule="evenodd" fill="rgb(0,172,211)"/><path d=" M 944.665 244.772 L 954.759 244.772 L 954.759 254.867 L 944.665 254.867 L 944.665 244.772 Z  M 945.592 245.596 L 946.416 245.596 L 946.416 253.94 L 945.592 253.94 L 945.592 245.596 Z  M 947.034 245.596 L 947.858 245.596 L 947.858 253.94 L 947.034 253.94 L 947.034 245.596 Z  M 948.579 245.596 L 949.403 245.596 L 949.403 253.94 L 948.579 253.94 L 948.579 245.596 Z  M 950.124 245.596 L 950.948 245.596 L 950.948 253.94 L 950.124 253.94 L 950.124 245.596 Z  M 951.566 245.596 L 952.39 245.596 L 952.39 253.94 L 951.566 253.94 L 951.566 245.596 Z  M 953.111 245.596 L 953.935 245.596 L 953.935 253.94 L 953.111 253.94 L 953.111 245.596 Z " fill-rule="evenodd" fill="rgb(35,194,238)"/><path d=" M 956.304 244.772 L 966.399 244.772 L 966.399 254.867 L 956.304 254.867 L 956.304 244.772 Z  M 957.128 245.596 L 957.952 245.596 L 957.952 253.94 L 957.128 253.94 L 957.128 245.596 Z  M 958.673 245.596 L 959.497 245.596 L 959.497 253.94 L 958.673 253.94 L 958.673 245.596 Z  M 960.218 245.596 L 961.042 245.596 L 961.042 253.94 L 960.218 253.94 L 960.218 245.596 Z  M 961.66 245.596 L 962.484 245.596 L 962.484 253.94 L 961.66 253.94 L 961.66 245.596 Z  M 963.206 245.596 L 964.03 245.596 L 964.03 253.94 L 963.206 253.94 L 963.206 245.596 Z  M 964.751 245.596 L 965.575 245.596 L 965.575 253.94 L 964.751 253.94 L 964.751 245.596 Z " fill-rule="evenodd" fill="rgb(0,172,211)"/><path d=" M 956.304 233.236 L 966.399 233.236 L 966.399 243.33 L 956.304 243.33 L 956.304 233.236 Z  M 957.128 234.06 L 957.952 234.06 L 957.952 242.403 L 957.128 242.403 L 957.128 234.06 Z  M 958.673 234.06 L 959.497 234.06 L 959.497 242.403 L 958.673 242.403 L 958.673 234.06 Z  M 960.218 234.06 L 961.042 234.06 L 961.042 242.403 L 960.218 242.403 L 960.218 234.06 Z  M 961.66 234.06 L 962.484 234.06 L 962.484 242.403 L 961.66 242.403 L 961.66 234.06 Z  M 963.206 234.06 L 964.03 234.06 L 964.03 242.403 L 963.206 242.403 L 963.206 234.06 Z  M 964.751 234.06 L 965.575 234.06 L 965.575 242.403 L 964.751 242.403 L 964.751 234.06 Z  M 967.944 244.772 L 978.038 244.772 L 978.038 254.867 L 967.944 254.867 L 967.944 244.772 Z  M 968.768 245.596 L 969.592 245.596 L 969.592 253.94 L 968.768 253.94 L 968.768 245.596 Z  M 970.313 245.596 L 971.137 245.596 L 971.137 253.94 L 970.313 253.94 L 970.313 245.596 Z  M 971.755 245.596 L 972.579 245.596 L 972.579 253.94 L 971.755 253.94 L 971.755 245.596 Z  M 973.3 245.596 L 974.124 245.596 L 974.124 253.94 L 973.3 253.94 L 973.3 245.596 Z  M 974.845 245.596 L 975.669 245.596 L 975.669 253.94 L 974.845 253.94 L 974.845 245.596 Z  M 976.39 245.596 L 977.214 245.596 L 977.214 253.94 L 976.39 253.94 L 976.39 245.596 Z " fill-rule="evenodd" fill="rgb(35,194,238)"/><path d=" M 967.944 233.236 L 978.038 233.236 L 978.038 243.33 L 967.944 243.33 L 967.944 233.236 Z  M 968.768 234.06 L 969.592 234.06 L 969.592 242.403 L 968.768 242.403 L 968.768 234.06 Z  M 970.313 234.06 L 971.137 234.06 L 971.137 242.403 L 970.313 242.403 L 970.313 234.06 Z  M 971.755 234.06 L 972.579 234.06 L 972.579 242.403 L 971.755 242.403 L 971.755 234.06 Z  M 973.3 234.06 L 974.124 234.06 L 974.124 242.403 L 973.3 242.403 L 973.3 234.06 Z  M 974.845 234.06 L 975.669 234.06 L 975.669 242.403 L 974.845 242.403 L 974.845 234.06 Z  M 976.39 234.06 L 977.214 234.06 L 977.214 242.403 L 976.39 242.403 L 976.39 234.06 Z " fill-rule="evenodd" fill="rgb(0,172,211)"/><path d=" M 967.944 221.596 L 978.038 221.596 L 978.038 231.691 L 967.944 231.691 L 967.944 221.596 Z  M 968.768 222.421 L 969.592 222.421 L 969.592 230.764 L 968.768 230.764 L 968.768 222.421 Z  M 970.313 222.421 L 971.137 222.421 L 971.137 230.764 L 970.313 230.764 L 970.313 222.421 Z  M 971.755 222.421 L 972.579 222.421 L 972.579 230.764 L 971.755 230.764 L 971.755 222.421 Z  M 973.3 222.421 L 974.124 222.421 L 974.124 230.764 L 973.3 230.764 L 973.3 222.421 Z  M 974.845 222.421 L 975.669 222.421 L 975.669 230.764 L 974.845 230.764 L 974.845 222.421 Z  M 976.39 222.421 L 977.214 222.421 L 977.214 230.764 L 976.39 230.764 L 976.39 222.421 Z " fill-rule="evenodd" fill="rgb(35,194,238)"/><path d=" M 979.583 244.772 L 989.677 244.772 L 989.677 254.867 L 979.583 254.867 L 979.583 244.772 Z  M 980.407 245.596 L 981.231 245.596 L 981.231 253.94 L 980.407 253.94 L 980.407 245.596 Z  M 981.849 245.596 L 982.673 245.596 L 982.673 253.94 L 981.849 253.94 L 981.849 245.596 Z  M 983.394 245.596 L 984.218 245.596 L 984.218 253.94 L 983.394 253.94 L 983.394 245.596 Z  M 984.939 245.596 L 985.763 245.596 L 985.763 253.94 L 984.939 253.94 L 984.939 245.596 Z  M 986.484 245.596 L 987.308 245.596 L 987.308 253.94 L 986.484 253.94 L 986.484 245.596 Z  M 988.029 245.596 L 988.853 245.596 L 988.853 253.94 L 988.029 253.94 L 988.029 245.596 Z " fill-rule="evenodd" fill="rgb(0,172,211)"/><path d=" M 954.141 271.141 C 955.686 271.141 956.922 272.377 956.922 273.922 C 956.922 275.467 955.686 276.703 954.141 276.703 C 952.596 276.703 951.36 275.467 951.36 273.922 C 951.36 272.377 952.596 271.141 954.141 271.141 Z " fill-rule="evenodd" fill="rgb(212,238,241)"/><path d=" M 954.141 271.965 C 954.347 271.965 954.656 271.965 954.862 272.068 C 954.656 272.171 954.45 272.48 954.45 272.789 C 954.45 273.201 954.862 273.613 955.274 273.613 C 955.583 273.613 955.892 273.407 955.995 273.201 C 956.098 273.407 956.098 273.716 956.098 273.922 C 956.098 275.055 955.171 275.879 954.141 275.879 C 953.008 275.879 952.184 274.952 952.184 273.922 C 952.184 272.892 953.008 271.965 954.141 271.965 M 905.008 265.476 L 1034.175 265.476 C 1031.394 264.755 1025.317 263.828 1026.244 260.12 C 1021.094 265.991 1008.836 264.24 1005.643 261.356 C 1002.141 266.403 981.952 264.446 980.613 260.532 C 976.287 265.682 962.794 265.682 958.467 260.532 C 957.025 264.446 936.837 266.403 933.437 261.356 C 930.347 264.24 917.987 265.991 912.837 260.12 C 913.97 263.725 907.79 264.755 905.008 265.476 Z " fill-rule="evenodd" fill="rgb(58,77,84)"/><path d=" M 961.557 291.227 C 954.656 287.931 950.948 283.502 948.785 278.661 C 946.21 279.382 943.12 279.897 939.618 280.103 C 938.279 280.206 936.837 280.206 935.395 280.206 C 933.643 280.206 931.892 280.206 930.038 280.103 C 936.219 286.283 944.047 291.124 958.364 291.227 L 961.557 291.227 Z " fill="rgb(191,219,224)"/><path d=" M 951.36 283.09 C 950.433 281.751 949.506 280.206 948.785 278.661 C 946.21 279.382 943.12 279.897 939.618 280.103 C 941.987 281.339 945.489 282.575 951.36 283.09 L 951.36 283.09 Z " fill="rgb(212,238,241)"/></g><g id="js"><path d=" M 496.978 214.766 L 580.166 214.766 L 580.166 297.955 L 496.978 297.955 L 496.978 214.766 Z " fill="rgb(240,219,79)"/><path d=" M 573.358 278.114 C 572.748 274.319 570.274 271.131 562.943 268.159 C 560.397 266.988 557.558 266.15 556.712 264.221 C 556.412 263.098 556.372 262.465 556.562 261.785 C 557.107 259.579 559.741 258.891 561.828 259.524 C 563.172 259.974 564.445 261.01 565.213 262.663 C 568.802 260.338 568.795 260.354 571.302 258.756 C 570.384 257.333 569.894 256.677 569.293 256.068 C 567.134 253.657 564.193 252.415 559.488 252.51 L 557.037 252.827 C 554.688 253.42 552.45 254.653 551.138 256.305 C 547.2 260.774 548.323 268.594 553.115 271.812 C 557.836 275.355 564.771 276.161 565.656 279.475 C 566.518 283.531 562.675 284.844 558.856 284.378 C 556.041 283.792 554.475 282.362 552.783 279.76 C 549.667 281.563 549.667 281.563 546.464 283.405 C 547.224 285.065 548.022 285.817 549.295 287.256 C 555.321 293.368 570.401 293.068 573.105 283.816 C 573.215 283.499 573.943 281.38 573.358 278.114 L 573.358 278.114 Z  M 542.201 252.999 L 534.42 252.999 L 534.388 273.116 C 534.388 277.394 534.61 281.316 533.914 282.518 C 532.776 284.883 529.826 284.59 528.481 284.131 C 527.113 283.459 526.417 282.502 525.611 281.151 C 525.39 280.763 525.224 280.462 525.168 280.439 L 518.842 284.313 C 519.894 286.472 521.443 288.346 523.428 289.564 C 526.394 291.343 530.379 291.889 534.547 290.932 C 537.259 290.142 539.6 288.505 540.825 286.014 C 542.597 282.748 542.217 278.794 542.201 274.422 C 542.241 267.288 542.201 260.156 542.201 252.999 Z " fill="rgb(50,51,48)"/></g><g id="mongodb"><path d=" M 1111.714 281.295 C 1111.831 281.071 1111.943 280.873 1112.038 280.668 C 1112.098 280.537 1112.19 280.511 1112.321 280.514 C 1113.103 280.536 1113.884 280.56 1114.667 280.568 C 1115.331 280.575 1115.997 280.562 1116.662 280.555 C 1117.411 280.546 1118.161 280.507 1118.909 280.528 C 1119.906 280.557 1120.878 280.752 1121.78 281.196 C 1122.857 281.726 1123.671 282.534 1124.227 283.599 C 1124.581 284.279 1124.787 285 1124.869 285.765 C 1124.988 286.875 1124.91 287.959 1124.558 289.02 C 1124.122 290.335 1123.294 291.342 1122.144 292.096 C 1121.259 292.676 1120.288 293.019 1119.247 293.215 C 1118.146 293.423 1117.042 293.356 1115.937 293.359 C 1114.725 293.364 1113.514 293.338 1112.303 293.324 C 1112.091 293.322 1112.061 293.282 1112.117 293.08 L 1112.168 292.893 C 1112.286 292.522 1112.35 292.506 1112.726 292.444 C 1112.987 292.402 1113.258 292.304 1113.476 292.159 C 1113.603 292.074 1113.656 291.855 1113.706 291.686 C 1113.748 291.538 1113.75 291.376 1113.752 291.22 C 1113.769 288.857 1113.787 286.495 1113.797 284.133 C 1113.799 283.536 1113.785 282.938 1113.752 282.342 C 1113.728 281.924 1113.505 281.639 1113.009 281.54 C 1112.622 281.464 1112.233 281.404 1111.845 281.336 L 1111.714 281.295 L 1111.714 281.295 Z  M 1122.806 287.017 C 1122.754 286.546 1122.728 286.072 1122.644 285.608 C 1122.443 284.495 1121.955 283.526 1121.1 282.766 C 1119.717 281.539 1118.051 281.35 1116.305 281.496 C 1115.908 281.529 1115.822 281.665 1115.816 282.073 C 1115.806 282.653 1115.797 283.233 1115.796 283.812 C 1115.793 285.65 1115.793 287.488 1115.796 289.326 C 1115.797 289.849 1115.802 290.372 1115.818 290.894 C 1115.834 291.428 1116.028 291.88 1116.551 292.087 C 1117.375 292.413 1118.243 292.452 1119.108 292.319 C 1120.49 292.107 1121.457 291.302 1122.105 290.095 C 1122.619 289.137 1122.763 288.092 1122.806 287.017 L 1122.806 287.017 Z  M 1126.166 293.276 C 1126.149 292.989 1126.266 292.753 1126.411 292.535 C 1126.451 292.477 1126.586 292.48 1126.679 292.461 L 1127.47 292.304 C 1127.749 292.245 1127.896 292.057 1127.935 291.783 C 1127.962 291.603 1127.986 291.42 1127.989 291.237 C 1128.006 289.79 1128.022 288.343 1128.029 286.896 C 1128.036 285.447 1128.031 283.998 1128.031 282.55 L 1128.024 282.273 C 1127.996 281.807 1127.771 281.566 1127.309 281.497 L 1126.306 281.345 C 1126.183 281.328 1126.138 281.269 1126.183 281.159 C 1126.26 280.972 1126.334 280.778 1126.443 280.61 C 1126.484 280.548 1126.621 280.524 1126.713 280.526 C 1127.192 280.533 1127.671 280.569 1128.15 280.568 L 1132.318 280.543 C 1133.121 280.542 1133.897 280.682 1134.617 281.067 C 1135.41 281.489 1135.853 282.142 1135.98 283.033 C 1136.113 283.967 1135.829 284.755 1135.146 285.381 C 1134.865 285.639 1134.502 285.808 1134.176 286.017 L 1134.07 286.084 C 1134.372 286.195 1134.66 286.291 1134.94 286.405 C 1135.76 286.741 1136.412 287.266 1136.757 288.104 C 1137.029 288.766 1137.029 289.456 1136.868 290.142 C 1136.617 291.215 1135.909 291.93 1134.99 292.47 C 1134.126 292.977 1133.192 293.272 1132.197 293.322 C 1131.28 293.368 1130.358 293.351 1129.438 293.361 L 1128.905 293.364 C 1128.02 293.344 1127.133 293.321 1126.246 293.298 L 1126.166 293.276 L 1126.166 293.276 Z  M 1129.986 289.075 L 1129.995 289.075 C 1129.995 289.529 1129.989 289.983 1129.997 290.437 C 1130.003 290.73 1129.992 291.033 1130.056 291.316 C 1130.151 291.738 1130.344 292.12 1130.819 292.241 C 1131.46 292.406 1132.115 292.439 1132.763 292.327 C 1133.575 292.186 1134.223 291.779 1134.578 291.005 C 1134.842 290.43 1134.881 289.821 1134.791 289.199 C 1134.671 288.379 1134.235 287.784 1133.512 287.394 C 1133.037 287.138 1132.531 286.982 1131.991 286.961 C 1131.387 286.938 1130.781 286.937 1130.177 286.918 C 1130.007 286.914 1129.984 287 1129.985 287.139 C 1129.988 287.784 1129.986 288.429 1129.986 289.075 L 1129.986 289.075 Z  M 1131.273 285.987 C 1131.603 285.97 1131.977 285.966 1132.349 285.928 C 1133.061 285.857 1133.563 285.499 1133.824 284.818 C 1133.957 284.472 1133.952 284.116 1133.955 283.757 C 1133.966 282.821 1133.419 282.053 1132.53 281.736 C 1131.843 281.491 1131.135 281.487 1130.423 281.506 C 1130.135 281.514 1130.006 281.64 1130.002 281.931 L 1129.959 285.718 C 1129.957 285.868 1130.022 285.933 1130.168 285.938 L 1131.273 285.987 L 1131.273 285.987 Z " fill-rule="evenodd" fill="rgb(148,121,93)"/><path d=" M 1058.783 292.548 L 1058.733 293.199 C 1058.263 293.199 1057.831 293.196 1057.398 293.201 C 1056.583 293.209 1055.768 293.222 1054.953 293.234 L 1054.874 293.238 C 1054.758 293.225 1054.546 293.225 1054.54 293.19 C 1054.506 292.996 1054.517 292.793 1054.526 292.592 C 1054.527 292.569 1054.606 292.54 1054.652 292.529 L 1055.286 292.388 C 1055.682 292.285 1055.821 292.115 1055.84 291.706 C 1055.861 291.246 1055.882 290.785 1055.884 290.325 C 1055.891 289.192 1055.884 288.06 1055.889 286.927 C 1055.889 286.662 1055.797 286.465 1055.55 286.357 C 1055.257 286.228 1054.961 286.101 1054.664 285.981 C 1054.523 285.924 1054.34 285.893 1054.357 285.704 C 1054.373 285.512 1054.551 285.461 1054.718 285.423 C 1055.409 285.265 1056.101 285.111 1056.79 284.943 C 1057.012 284.889 1057.225 284.797 1057.491 284.704 C 1057.504 284.848 1057.53 284.984 1057.527 285.121 L 1057.486 285.77 C 1057.486 285.843 1057.524 285.941 1057.578 285.982 C 1057.611 286.008 1057.722 285.961 1057.778 285.919 C 1058.367 285.47 1058.991 285.083 1059.702 284.857 C 1060.804 284.508 1061.75 284.832 1062.412 285.782 C 1062.645 286.117 1062.646 286.117 1062.97 285.883 C 1063.525 285.479 1064.106 285.123 1064.756 284.889 C 1066.183 284.373 1067.554 285.027 1068.05 286.464 C 1068.231 286.986 1068.3 287.525 1068.298 288.075 L 1068.285 291.731 C 1068.284 292.032 1068.384 292.204 1068.672 292.298 C 1068.994 292.404 1069.328 292.476 1069.691 292.571 L 1069.606 293.2 C 1069.194 293.2 1068.814 293.197 1068.435 293.201 C 1067.508 293.209 1066.58 293.214 1065.654 293.235 C 1065.492 293.239 1065.45 293.199 1065.442 293.048 C 1065.415 292.564 1065.411 292.565 1065.866 292.456 L 1066.019 292.417 C 1066.464 292.295 1066.613 292.159 1066.616 291.707 C 1066.626 290.412 1066.653 289.112 1066.588 287.819 C 1066.52 286.478 1065.455 285.764 1064.155 286.108 C 1063.731 286.219 1063.346 286.415 1062.989 286.669 C 1062.868 286.756 1062.845 286.855 1062.855 287.006 C 1062.892 287.577 1062.914 288.149 1062.919 288.721 C 1062.928 289.722 1062.915 290.724 1062.919 291.725 C 1062.921 292.131 1063.059 292.286 1063.46 292.38 L 1064.056 292.517 L 1064.166 292.542 C 1064.174 292.733 1064.182 292.923 1064.173 293.114 C 1064.167 293.233 1064.075 293.243 1063.971 293.241 C 1063.393 293.227 1062.813 293.207 1062.234 293.209 C 1061.53 293.21 1060.826 293.23 1060.122 293.243 L 1059.957 293.243 C 1059.957 293.04 1059.947 292.847 1059.963 292.655 C 1059.967 292.609 1060.048 292.544 1060.104 292.529 L 1060.798 292.382 C 1061.093 292.31 1061.234 292.159 1061.25 291.859 C 1061.329 290.472 1061.385 289.085 1061.255 287.699 C 1061.23 287.43 1061.142 287.156 1061.03 286.909 C 1060.675 286.124 1059.875 285.796 1058.953 286.032 C 1058.515 286.144 1058.119 286.344 1057.745 286.598 C 1057.569 286.718 1057.484 286.876 1057.484 287.077 C 1057.484 288.46 1057.489 289.844 1057.493 291.227 L 1057.501 291.76 C 1057.509 292.132 1057.667 292.328 1058.036 292.408 C 1058.274 292.462 1058.514 292.498 1058.783 292.548 L 1058.783 292.548 Z " fill-rule="evenodd" fill="rgb(179,173,171)"/><path d=" M 1100.497 284.846 C 1100.604 285.366 1100.602 285.834 1100.219 286.188 C 1099.84 286.541 1099.36 286.422 1098.891 286.344 C 1098.935 286.591 1098.983 286.8 1099.007 287.013 C 1099.177 288.592 1098.497 289.764 1097.033 290.434 C 1096.479 290.687 1095.892 290.781 1095.292 290.829 C 1094.994 290.853 1094.734 291.08 1094.705 291.325 C 1094.676 291.574 1094.832 291.829 1095.144 291.903 C 1095.512 291.991 1095.895 292.016 1096.273 292.059 C 1097.083 292.152 1097.902 292.194 1098.702 292.339 C 1099.912 292.557 1100.588 293.613 1100.375 294.829 C 1100.185 295.911 1099.558 296.698 1098.685 297.302 C 1097.213 298.321 1095.599 298.62 1093.879 298.099 C 1092.896 297.801 1092.203 297.155 1091.963 296.109 C 1091.843 295.585 1091.971 295.111 1092.365 294.756 C 1092.833 294.335 1093.343 293.959 1093.834 293.562 L 1093.993 293.403 L 1093.81 293.275 C 1093.31 293.038 1092.91 292.713 1092.755 292.148 C 1092.702 291.957 1092.757 291.832 1092.919 291.734 C 1093.195 291.567 1093.47 291.398 1093.742 291.227 C 1093.87 291.146 1093.997 291.064 1094.117 290.971 C 1094.28 290.847 1094.265 290.755 1094.071 290.683 C 1093.618 290.516 1093.216 290.274 1092.904 289.901 C 1092.383 289.279 1092.235 288.539 1092.278 287.757 C 1092.345 286.536 1093.008 285.732 1094.086 285.214 C 1095.367 284.599 1096.652 284.561 1097.958 285.121 C 1098.441 285.328 1098.951 285.372 1099.469 285.336 C 1099.856 285.309 1100.194 285.162 1100.497 284.846 L 1100.497 284.846 Z  M 1095.775 293.595 C 1094.814 293.587 1094.512 293.706 1093.948 294.28 C 1093.316 294.925 1093.319 295.818 1093.95 296.465 C 1094.429 296.956 1095.026 297.186 1095.691 297.255 C 1096.467 297.335 1097.231 297.302 1097.936 296.914 C 1098.688 296.498 1099.062 295.725 1098.893 294.947 C 1098.753 294.304 1098.28 294.011 1097.704 293.841 C 1097.048 293.65 1096.371 293.613 1095.775 293.595 L 1095.775 293.595 Z  M 1093.886 287.449 C 1093.921 287.716 1093.936 287.986 1093.995 288.248 C 1094.149 288.925 1094.444 289.521 1095.118 289.822 C 1095.909 290.178 1096.92 290.025 1097.266 288.914 C 1097.504 288.153 1097.475 287.398 1097.188 286.656 C 1097.061 286.324 1096.855 286.044 1096.561 285.839 C 1095.873 285.359 1094.634 285.296 1094.128 286.355 C 1093.964 286.7 1093.9 287.066 1093.886 287.449 L 1093.886 287.449 Z " fill-rule="evenodd" fill="rgb(179,173,171)"/><path d=" M 1084.178 284.675 C 1084.204 284.793 1084.255 284.927 1084.256 285.062 C 1084.259 285.318 1084.231 285.574 1084.216 285.83 L 1084.216 286.052 L 1084.433 285.886 C 1085.026 285.398 1085.664 284.982 1086.406 284.757 C 1087.746 284.354 1089.085 285.087 1089.522 286.452 C 1089.687 286.971 1089.753 287.504 1089.759 288.046 C 1089.773 289.251 1089.781 290.456 1089.793 291.661 C 1089.798 292.093 1089.847 292.17 1090.256 292.295 C 1090.488 292.366 1090.728 292.416 1090.967 292.453 C 1091.099 292.474 1091.155 292.526 1091.149 292.655 L 1091.15 292.773 C 1091.145 293.272 1091.111 293.295 1090.627 293.294 C 1089.469 293.292 1088.312 293.298 1087.154 293.308 C 1086.809 293.311 1086.809 293.321 1086.774 292.98 L 1086.767 292.784 C 1086.789 292.491 1086.796 292.493 1087.085 292.451 C 1087.279 292.422 1087.472 292.377 1087.662 292.327 C 1087.857 292.277 1087.951 292.132 1087.977 291.939 C 1087.991 291.841 1088.008 291.743 1088.007 291.645 C 1087.991 290.329 1088.012 289.011 1087.94 287.697 C 1087.882 286.633 1087.071 286 1086.003 286.072 C 1085.48 286.109 1085.006 286.284 1084.575 286.585 C 1084.29 286.785 1084.232 287.072 1084.234 287.382 C 1084.239 288.613 1084.251 289.844 1084.264 291.075 C 1084.267 291.345 1084.274 291.615 1084.3 291.883 C 1084.327 292.175 1084.43 292.293 1084.717 292.357 C 1084.991 292.417 1085.271 292.453 1085.565 292.502 L 1085.589 292.728 C 1085.599 293.256 1085.544 293.295 1085.031 293.293 C 1083.834 293.288 1082.637 293.296 1081.441 293.309 C 1081.252 293.312 1081.172 293.252 1081.177 293.069 L 1081.174 292.99 C 1081.143 292.515 1081.157 292.497 1081.607 292.419 L 1081.819 292.377 C 1082.307 292.267 1082.431 292.137 1082.438 291.643 C 1082.461 290.076 1082.469 288.509 1082.485 286.943 C 1082.487 286.718 1082.403 286.543 1082.193 286.45 C 1081.899 286.32 1081.602 286.197 1081.305 286.075 C 1081.141 286.007 1080.953 285.964 1080.947 285.737 C 1080.943 285.577 1081.114 285.436 1081.348 285.388 C 1081.817 285.293 1082.291 285.213 1082.756 285.097 C 1083.218 284.982 1083.672 284.827 1084.178 284.675 Z " fill-rule="evenodd" fill="rgb(179,173,171)"/><path d=" M 1110.063 288.768 C 1110.04 290.232 1109.66 291.415 1108.625 292.303 C 1107.314 293.43 1105.269 293.813 1103.598 292.97 C 1102.884 292.611 1102.36 292.059 1102.018 291.344 C 1101.495 290.243 1101.363 289.086 1101.637 287.901 C 1101.907 286.729 1102.617 285.879 1103.68 285.329 C 1104.773 284.764 1105.923 284.544 1107.137 284.84 C 1108.672 285.215 1109.775 286.466 1109.995 288.06 C 1110.034 288.34 1110.049 288.623 1110.063 288.768 L 1110.063 288.768 Z  M 1108.284 289.561 L 1108.225 289.554 C 1108.225 289.416 1108.233 289.278 1108.224 289.14 C 1108.173 288.28 1107.98 287.461 1107.482 286.742 C 1107.009 286.06 1106.366 285.658 1105.528 285.599 C 1104.59 285.533 1103.802 286.057 1103.526 287.015 C 1103.11 288.453 1103.251 289.854 1103.981 291.171 C 1104.299 291.745 1104.77 292.169 1105.402 292.392 C 1106.02 292.61 1106.604 292.577 1107.073 292.333 C 1107.542 292.088 1107.897 291.63 1108.058 290.997 C 1108.177 290.529 1108.211 290.04 1108.284 289.561 Z " fill-rule="evenodd" fill="rgb(179,173,171)"/><path d=" M 1079.672 288.881 C 1079.647 289.931 1079.399 290.902 1078.751 291.746 C 1078.056 292.65 1077.101 293.133 1076.015 293.336 C 1074.731 293.577 1073.525 293.359 1072.493 292.497 C 1072.003 292.087 1071.669 291.562 1071.448 290.964 C 1071.086 289.985 1070.995 288.981 1071.218 287.957 C 1071.456 286.862 1072.074 286.026 1073.033 285.464 C 1074.141 284.816 1075.337 284.527 1076.614 284.818 C 1078.256 285.193 1079.204 286.264 1079.554 287.884 C 1079.625 288.211 1079.634 288.549 1079.672 288.881 L 1079.672 288.881 Z  M 1077.874 289.574 L 1077.827 289.567 L 1077.827 289.37 C 1077.8 288.407 1077.611 287.489 1077.037 286.689 C 1076.611 286.095 1076.041 285.722 1075.31 285.618 C 1074.119 285.448 1073.341 286.155 1073.083 287.114 C 1072.857 287.958 1072.83 288.794 1072.996 289.613 C 1073.076 290.012 1073.202 290.406 1073.373 290.795 C 1073.698 291.536 1074.211 292.114 1075 292.394 C 1076.229 292.831 1077.343 292.253 1077.654 290.991 C 1077.769 290.529 1077.803 290.047 1077.874 289.574 L 1077.874 289.574 Z " fill-rule="evenodd" fill="rgb(179,173,171)"/><path d=" M 1108.336 235.347 C 1109.182 237.794 1109.791 240.293 1109.991 242.881 C 1110.24 246.094 1110.127 249.284 1109.449 252.444 L 1109.362 252.696 C 1109.15 252.697 1108.933 252.67 1108.725 252.702 C 1106.971 252.978 1105.218 253.264 1103.465 253.548 C 1101.653 253.842 1099.839 254.124 1098.03 254.438 C 1097.389 254.548 1096.595 254.416 1096.336 255.302 L 1096.212 255.344 L 1096.3 250.047 L 1096.211 237.264 L 1097.055 237.119 C 1098.436 236.894 1099.817 236.664 1101.199 236.444 C 1102.848 236.182 1104.499 235.927 1106.149 235.672 C 1106.878 235.56 1107.607 235.456 1108.336 235.347 L 1108.336 235.347 Z " fill-rule="evenodd" fill="rgb(67,153,52)"/><path d=" M 1094.469 270.788 C 1093.579 270.023 1092.657 269.29 1091.803 268.485 C 1087.209 264.152 1083.849 259.051 1082.193 252.901 C 1081.737 251.209 1081.434 249.489 1081.336 247.741 C 1081.267 246.517 1081.168 245.282 1081.255 244.065 C 1081.485 240.827 1081.953 237.62 1082.903 234.5 L 1082.955 234.428 C 1083.048 234.551 1083.18 234.66 1083.227 234.798 C 1084.154 237.528 1085.074 240.26 1085.99 242.995 C 1088.866 251.585 1091.739 260.178 1094.62 268.767 C 1094.677 268.935 1094.823 269.072 1094.927 269.224 L 1094.469 270.788 Z " fill-rule="evenodd" fill="rgb(69,165,56)"/><path d=" M 1108.336 235.347 C 1107.606 235.455 1106.877 235.56 1106.149 235.672 C 1104.499 235.927 1102.848 236.182 1101.199 236.444 C 1099.817 236.663 1098.437 236.893 1097.055 237.119 L 1096.211 237.264 L 1096.204 236.714 C 1096.176 236.261 1096.129 235.809 1096.122 235.356 L 1096.028 226.694 C 1096.006 224.887 1095.973 223.08 1095.936 221.274 C 1095.913 220.151 1095.889 219.028 1095.839 217.907 C 1095.811 217.304 1095.714 216.705 1095.675 216.102 C 1095.653 215.756 1095.683 215.407 1095.691 215.059 C 1096.121 215.893 1096.543 216.734 1096.985 217.562 C 1097.684 218.871 1098.798 219.835 1099.802 220.887 C 1103.767 225.049 1106.581 229.884 1108.336 235.347 L 1108.336 235.347 Z " fill-rule="evenodd" fill="rgb(70,160,55)"/><path d=" M 1096.213 255.344 L 1096.337 255.302 C 1096.596 254.416 1097.389 254.548 1098.03 254.438 C 1099.839 254.124 1101.653 253.842 1103.466 253.548 C 1105.219 253.265 1106.971 252.979 1108.726 252.702 C 1108.934 252.67 1109.15 252.697 1109.363 252.696 C 1109.035 253.866 1108.777 255.062 1108.361 256.2 C 1107.888 257.49 1107.317 258.75 1106.711 259.985 C 1105.804 261.831 1104.675 263.553 1103.362 265.131 C 1102.351 266.346 1101.223 267.472 1100.094 268.582 C 1099.469 269.195 1098.733 269.695 1098.047 270.247 L 1097.869 270.126 L 1097.23 269.58 L 1096.568 268.128 C 1096.112 266.429 1095.873 264.7 1095.833 262.942 L 1095.846 262.647 L 1095.936 261.368 C 1095.966 260.931 1096.006 260.495 1096.024 260.058 C 1096.091 258.488 1096.15 256.916 1096.213 255.344 L 1096.213 255.344 Z " fill-rule="evenodd" fill="rgb(64,148,51)"/><path d=" M 1096.213 255.344 C 1096.151 256.916 1096.091 258.488 1096.024 260.06 C 1096.006 260.498 1095.967 260.934 1095.936 261.37 L 1095.533 261.522 C 1094.638 258.886 1093.741 256.277 1092.865 253.662 C 1091.416 249.335 1089.984 245.002 1088.536 240.674 C 1087.368 237.182 1086.19 233.691 1085.005 230.203 C 1084.949 230.04 1084.79 229.912 1084.68 229.768 L 1087.261 225.023 C 1087.35 225.177 1087.466 225.321 1087.522 225.487 C 1088.716 229.019 1089.907 232.553 1091.088 236.089 C 1092.626 240.691 1094.153 245.296 1095.688 249.898 C 1095.75 250.082 1095.851 250.252 1095.947 250.458 L 1096.3 250.047 C 1096.271 251.813 1096.242 253.578 1096.213 255.344 Z " fill-rule="evenodd" fill="rgb(79,170,65)"/><path d=" M 1084.679 229.768 C 1084.79 229.912 1084.949 230.04 1085.004 230.203 C 1086.189 233.691 1087.367 237.181 1088.536 240.674 C 1089.983 245.002 1091.415 249.335 1092.864 253.662 C 1093.741 256.277 1094.637 258.885 1095.533 261.522 L 1095.935 261.37 L 1095.845 262.649 L 1095.763 262.943 C 1095.623 264.343 1095.505 265.746 1095.334 267.143 C 1095.248 267.844 1095.065 268.531 1094.927 269.224 C 1094.823 269.072 1094.676 268.935 1094.62 268.767 C 1091.738 260.178 1088.865 251.585 1085.989 242.995 C 1085.073 240.26 1084.153 237.528 1083.226 234.798 C 1083.179 234.66 1083.047 234.551 1082.954 234.428 L 1084.679 229.768 Z " fill-rule="evenodd" fill="rgb(74,167,60)"/><path d=" M 1096.3 250.047 L 1095.947 250.458 C 1095.85 250.252 1095.749 250.082 1095.688 249.898 C 1094.152 245.296 1092.625 240.691 1091.088 236.089 C 1089.907 232.553 1088.715 229.019 1087.521 225.487 C 1087.465 225.321 1087.349 225.177 1087.26 225.023 L 1090.451 220.825 C 1090.552 220.959 1090.695 221.078 1090.747 221.23 C 1091.633 223.824 1092.51 226.42 1093.384 229.019 C 1094.2 231.446 1095.003 233.876 1095.828 236.299 C 1095.883 236.461 1096.076 236.576 1096.204 236.714 L 1096.211 237.264 L 1096.3 250.047 L 1096.3 250.047 Z " fill-rule="evenodd" fill="rgb(87,174,71)"/><path d=" M 1096.204 236.714 C 1096.075 236.576 1095.883 236.462 1095.828 236.299 C 1095.003 233.876 1094.2 231.446 1093.384 229.019 C 1092.51 226.42 1091.633 223.824 1090.747 221.23 C 1090.695 221.078 1090.552 220.959 1090.451 220.825 C 1091.489 219.809 1092.494 218.756 1093.574 217.787 C 1094.533 216.926 1095.305 216.002 1095.341 214.641 L 1095.417 214.37 L 1095.69 215.059 C 1095.683 215.406 1095.652 215.755 1095.675 216.102 C 1095.714 216.704 1095.811 217.304 1095.838 217.906 C 1095.889 219.027 1095.913 220.15 1095.935 221.273 C 1095.972 223.079 1096.005 224.886 1096.027 226.693 L 1096.122 235.355 C 1096.129 235.809 1096.176 236.261 1096.204 236.714 L 1096.204 236.714 Z " fill-rule="evenodd" fill="rgb(96,178,79)"/><path d=" M 1094.927 269.223 C 1095.066 268.53 1095.249 267.843 1095.335 267.143 C 1095.506 265.746 1095.624 264.343 1095.764 262.943 L 1095.799 262.937 L 1095.833 262.943 C 1095.873 264.702 1096.112 266.431 1096.568 268.129 C 1096.475 268.252 1096.345 268.36 1096.295 268.498 C 1095.912 269.579 1095.55 270.668 1095.165 271.748 C 1095.113 271.896 1094.965 272.011 1094.863 272.14 L 1094.469 270.788 L 1094.927 269.223 Z " fill-rule="evenodd" fill="rgb(169,170,136)"/><path d=" M 1094.863 272.141 C 1094.965 272.011 1095.113 271.896 1095.165 271.749 C 1095.55 270.669 1095.912 269.58 1096.295 268.499 C 1096.344 268.361 1096.475 268.253 1096.568 268.13 L 1097.23 269.582 C 1097.099 269.767 1096.919 269.934 1096.846 270.141 L 1095.579 273.861 C 1095.527 274.011 1095.35 274.115 1095.23 274.242 L 1094.863 272.141 L 1094.863 272.141 Z " fill-rule="evenodd" fill="rgb(182,181,152)"/><path d=" M 1095.23 274.241 C 1095.349 274.115 1095.527 274.01 1095.579 273.86 L 1096.846 270.14 C 1096.918 269.934 1097.099 269.766 1097.23 269.581 L 1097.87 270.127 C 1097.561 270.432 1097.389 270.786 1097.493 271.232 L 1097.298 271.869 C 1097.21 271.978 1097.082 272.073 1097.038 272.198 C 1096.596 273.465 1096.174 274.738 1095.728 276.005 C 1095.672 276.165 1095.515 276.291 1095.406 276.433 L 1095.23 274.241 L 1095.23 274.241 Z " fill-rule="evenodd" fill="rgb(194,193,167)"/><path d=" M 1095.405 276.432 C 1095.515 276.29 1095.672 276.164 1095.728 276.004 C 1096.174 274.738 1096.596 273.464 1097.037 272.197 C 1097.081 272.072 1097.209 271.978 1097.297 271.868 L 1097.029 274.791 C 1096.957 274.874 1096.854 274.946 1096.819 275.042 L 1095.927 277.6 C 1095.864 277.775 1095.744 277.931 1095.65 278.094 C 1095.566 277.985 1095.417 277.88 1095.41 277.767 C 1095.384 277.324 1095.403 276.877 1095.405 276.432 L 1095.405 276.432 Z " fill-rule="evenodd" fill="rgb(206,205,183)"/><path d=" M 1095.651 278.095 C 1095.744 277.932 1095.864 277.776 1095.927 277.601 L 1096.82 275.043 C 1096.855 274.946 1096.959 274.874 1097.03 274.792 L 1097.037 276.71 L 1096.394 278.357 L 1095.651 278.095 Z " fill-rule="evenodd" fill="rgb(219,218,199)"/><path d=" M 1096.394 278.357 L 1097.037 276.71 L 1097.169 278.658 L 1096.394 278.357 L 1096.394 278.357 Z " fill-rule="evenodd" fill="rgb(235,233,220)"/><path d=" M 1097.492 271.232 C 1097.389 270.786 1097.56 270.433 1097.869 270.127 L 1098.047 270.248 L 1097.492 271.232 L 1097.492 271.232 Z " fill-rule="evenodd" fill="rgb(206,205,183)"/><path d=" M 1095.833 262.944 L 1095.799 262.938 L 1095.764 262.943 L 1095.846 262.649 L 1095.833 262.944 L 1095.833 262.944 Z " fill-rule="evenodd" fill="rgb(79,170,65)"/></g><path d=" M 678.138 233.253 L 647.871 215.678 C 645.962 214.591 643.477 214.591 641.553 215.678 L 610.963 233.253 C 608.993 234.386 607.599 236.516 607.599 238.794 L 607.599 273.896 C 607.599 276.174 609.029 278.305 610.999 279.444 L 619.081 284.034 C 622.944 285.937 624.309 285.937 626.067 285.937 C 631.787 285.937 635.054 282.478 635.054 276.446 L 635.054 241.791 C 635.054 241.302 634.799 240.573 634.319 240.573 L 630.459 240.573 C 629.971 240.573 628.876 241.302 628.876 241.79 L 628.876 276.445 C 628.876 279.119 626.458 281.78 621.937 279.52 L 613.586 274.707 C 613.295 274.549 613.09 274.231 613.09 273.896 L 613.09 238.794 C 613.09 238.463 613.471 238.131 613.764 237.961 L 644.255 220.417 C 644.54 220.255 644.959 220.255 645.243 220.417 L 675.362 237.957 C 675.651 238.131 675.549 238.452 675.549 238.794 L 675.549 273.896 C 675.549 274.231 675.675 274.557 675.39 274.718 L 645.13 292.273 C 644.871 292.429 644.549 292.429 644.265 292.273 L 636.504 287.641 C 636.27 287.505 635.992 287.456 635.768 287.581 C 633.608 288.805 633.21 288.968 631.185 289.67 C 630.686 289.844 629.951 290.145 631.466 290.994 L 641.623 297.003 C 642.596 297.565 643.701 297.858 644.813 297.858 C 645.94 297.858 647.043 297.565 648.016 297.003 L 678.137 279.444 C 680.107 278.296 681.041 276.174 681.041 273.896 L 681.041 238.794 C 681.041 236.516 680.107 234.391 678.138 233.253 L 678.138 233.253 Z  M 654.21 268.334 C 646.162 268.334 644.389 266.113 643.798 262.111 C 643.73 261.68 643.364 261.164 642.925 261.164 L 638.992 261.164 C 638.505 261.164 638.114 261.755 638.114 262.239 C 638.114 267.364 640.9 273.573 654.211 273.573 C 663.847 273.573 669.372 269.829 669.372 263.202 C 669.372 256.632 664.933 254.908 655.588 253.671 C 646.142 252.423 645.183 251.792 645.183 249.579 C 645.183 247.755 645.995 245.322 652.989 245.322 C 659.239 245.322 661.542 246.663 662.49 250.875 C 662.571 251.271 662.933 251.555 663.341 251.555 L 667.291 251.555 C 667.534 251.555 667.766 251.457 667.936 251.283 C 668.101 251.097 668.188 250.863 668.166 250.612 C 667.554 243.358 662.735 239.978 652.989 239.978 C 644.319 239.978 639.147 243.639 639.147 249.776 C 639.147 256.432 644.293 258.271 652.615 259.094 C 662.571 260.07 663.345 261.525 663.345 263.484 C 663.345 266.885 660.615 268.334 654.21 268.334 Z " fill="rgb(131,205,41)"/><g id="react"><path d=" M 738.585 245.075 C 738.585 241.604 741.404 238.785 744.875 238.785 C 748.347 238.785 751.165 241.604 751.165 245.075 C 751.165 248.547 748.347 251.365 744.875 251.365 C 741.404 251.365 738.585 248.547 738.585 245.075 Z " fill="rgb(97,218,251)"/><path d=" M 744.875 268.206 C 749.813 273.008 754.682 275.849 758.605 275.849 C 759.89 275.849 761.107 275.578 762.122 274.97 C 765.639 272.941 766.924 267.868 765.707 260.631 C 765.504 259.346 765.233 258.061 764.895 256.708 C 766.248 256.303 767.465 255.897 768.683 255.491 C 775.514 252.853 779.301 249.201 779.301 245.211 C 779.301 241.153 775.514 237.5 768.683 234.93 C 767.465 234.457 766.248 234.051 764.895 233.713 C 765.233 232.36 765.504 231.075 765.707 229.79 C 766.856 222.418 765.571 217.278 762.054 215.249 C 761.04 214.64 759.822 214.369 758.537 214.369 C 754.682 214.369 749.745 217.21 744.808 222.012 C 739.938 217.21 735.068 214.369 731.146 214.369 C 729.861 214.369 728.643 214.64 727.629 215.249 C 724.112 217.278 722.827 222.35 724.044 229.587 C 724.247 230.872 724.517 232.157 724.856 233.51 C 723.503 233.916 722.286 234.322 721.068 234.727 C 714.237 237.365 710.45 241.017 710.45 245.008 C 710.45 249.066 714.237 252.718 721.068 255.288 C 722.286 255.762 723.503 256.167 724.856 256.506 C 724.517 257.858 724.247 259.143 724.044 260.428 C 722.894 267.665 724.179 272.805 727.629 274.767 C 728.643 275.375 729.861 275.646 731.146 275.646 C 735.068 275.781 739.938 272.941 744.875 268.206 L 744.875 268.206 Z  M 741.088 259.076 C 742.305 259.143 743.59 259.143 744.875 259.143 C 746.16 259.143 747.445 259.143 748.663 259.076 C 747.445 260.699 746.16 262.187 744.875 263.607 C 743.59 262.187 742.305 260.699 741.088 259.076 Z  M 732.701 252.109 C 733.377 253.259 733.986 254.341 734.73 255.423 C 732.634 255.153 730.672 254.815 728.778 254.409 C 729.387 252.583 730.063 250.689 730.875 248.795 C 731.416 249.877 732.025 251.027 732.701 252.109 Z  M 728.778 235.81 C 730.672 235.404 732.634 235.066 734.73 234.795 C 734.054 235.877 733.377 236.959 732.701 238.109 C 732.025 239.259 731.416 240.341 730.875 241.491 C 729.996 239.529 729.319 237.636 728.778 235.81 Z  M 732.498 245.075 C 733.377 243.249 734.324 241.423 735.407 239.597 C 736.421 237.839 737.571 236.08 738.721 234.322 C 740.75 234.186 742.779 234.119 744.875 234.119 C 747.04 234.119 749.069 234.186 751.03 234.322 C 752.247 236.08 753.33 237.839 754.344 239.597 C 755.426 241.423 756.373 243.249 757.252 245.075 C 756.373 246.901 755.426 248.728 754.344 250.554 C 753.33 252.312 752.18 254.071 751.03 255.829 C 749.001 255.964 746.972 256.032 744.875 256.032 C 742.711 256.032 740.682 255.964 738.721 255.829 C 737.503 254.071 736.421 252.312 735.407 250.554 C 734.324 248.728 733.377 246.901 732.498 245.075 Z  M 758.943 241.423 L 757.117 238.041 C 756.441 236.892 755.832 235.81 755.088 234.727 C 757.185 234.998 759.146 235.336 761.04 235.742 C 760.431 237.636 759.755 239.529 758.943 241.423 Z  M 758.943 248.728 C 759.755 250.621 760.431 252.515 761.04 254.341 C 759.146 254.747 757.185 255.085 755.088 255.356 C 755.764 254.274 756.441 253.191 757.117 252.042 C 757.726 251.027 758.334 249.877 758.943 248.728 Z  M 760.499 272.197 C 759.958 272.535 759.281 272.67 758.537 272.67 C 755.223 272.67 751.098 269.965 747.04 265.907 C 749.001 263.81 750.895 261.443 752.788 258.805 C 755.967 258.535 759.011 258.061 761.851 257.385 C 762.19 258.602 762.393 259.82 762.595 261.037 C 763.542 266.786 762.798 270.912 760.499 272.197 L 760.499 272.197 Z  M 764.016 236.553 C 771.591 238.718 776.122 242.032 776.122 245.075 C 776.122 247.713 773.011 250.351 767.533 252.447 C 766.451 252.853 765.233 253.259 764.016 253.597 C 763.137 250.824 762.054 247.984 760.702 245.075 C 762.054 242.167 763.204 239.326 764.016 236.553 Z  M 758.605 217.481 C 759.349 217.481 759.958 217.616 760.566 217.954 C 762.798 219.239 763.61 223.297 762.663 229.114 C 762.46 230.264 762.19 231.481 761.919 232.766 C 759.078 232.157 756.035 231.684 752.856 231.346 C 751.03 228.708 749.069 226.341 747.107 224.244 C 751.165 220.254 755.291 217.481 758.605 217.481 Z  M 748.663 231.075 C 747.445 231.007 746.16 231.007 744.875 231.007 C 743.59 231.007 742.305 231.007 741.088 231.075 C 742.305 229.452 743.59 227.964 744.875 226.544 C 746.16 227.964 747.445 229.52 748.663 231.075 Z  M 729.252 217.954 C 729.793 217.616 730.469 217.481 731.213 217.481 C 734.527 217.481 738.653 220.186 742.711 224.244 C 740.75 226.341 738.856 228.708 736.962 231.346 C 733.783 231.616 730.74 232.09 727.899 232.766 C 727.561 231.549 727.358 230.331 727.155 229.114 C 726.208 223.365 726.952 219.307 729.252 217.954 Z  M 725.735 253.597 C 718.16 251.433 713.628 248.119 713.628 245.075 C 713.628 242.438 716.74 239.8 722.218 237.703 C 723.3 237.297 724.517 236.892 725.735 236.553 C 726.614 239.326 727.696 242.167 729.049 245.075 C 727.696 247.984 726.546 250.892 725.735 253.597 Z  M 727.155 261.037 C 727.358 259.887 727.629 258.67 727.899 257.385 C 730.74 257.993 733.783 258.467 736.962 258.805 C 738.788 261.443 740.75 263.81 742.711 265.907 C 738.653 269.897 734.527 272.67 731.213 272.67 C 730.469 272.67 729.861 272.535 729.252 272.197 C 726.952 270.912 726.208 266.786 727.155 261.037 L 727.155 261.037 Z  M 724.315 288.902 C 725.802 287.076 725.87 285.047 725.059 283.018 C 724.247 280.989 722.556 280.042 720.459 279.975 C 717.957 279.907 715.387 279.975 712.884 279.975 L 712.411 279.975 L 712.411 297.492 L 714.44 297.492 L 714.44 290.864 L 717.619 290.864 C 718.025 290.864 718.363 290.999 718.566 291.337 L 722.624 297.627 C 722.691 297.762 722.894 297.965 723.029 297.965 L 725.667 297.965 C 724.044 295.463 722.488 293.096 720.865 290.661 C 722.286 290.458 723.503 289.984 724.315 288.902 L 724.315 288.902 Z  M 714.44 288.767 L 714.44 282.071 L 715.184 282.071 C 716.74 282.071 718.363 282.004 719.918 282.139 C 721.744 282.207 723.029 283.627 723.029 285.453 C 723.029 287.279 721.542 288.699 719.715 288.767 C 718.092 288.835 716.469 288.767 714.44 288.767 Z  M 740.614 289.646 C 739.532 284.912 735.204 283.694 731.89 285.182 C 729.319 286.332 728.17 288.564 728.102 291.337 C 728.034 293.434 728.643 295.328 730.266 296.748 C 732.092 298.371 734.324 298.574 736.624 298.168 C 737.909 297.898 739.059 297.289 739.938 296.342 C 739.6 295.869 739.262 295.395 738.923 294.989 C 737.03 296.613 734.933 297.154 732.634 296.071 C 731.146 295.328 730.402 293.501 730.266 292.149 L 740.75 292.149 L 740.75 291.269 C 740.817 290.661 740.75 290.12 740.614 289.646 L 740.614 289.646 Z  M 730.402 290.728 C 730.199 288.699 732.228 286.535 734.46 286.535 C 737.03 286.467 738.653 288.023 738.721 290.728 L 730.402 290.728 Z  M 751.165 284.844 C 750.151 284.641 749.069 284.574 748.054 284.641 C 746.431 284.777 745.011 285.521 743.861 286.738 C 744.199 287.211 744.469 287.685 744.875 288.226 C 745.011 288.091 745.146 287.955 745.281 287.888 C 746.363 286.873 747.648 286.332 749.204 286.467 C 750.421 286.535 751.571 286.941 751.909 288.158 C 752.18 289.105 752.112 290.12 752.18 291.134 C 751.977 291.134 751.909 291.067 751.842 290.999 C 750.218 289.646 748.392 289.376 746.431 289.849 C 744.605 290.323 743.455 291.743 743.32 293.569 C 743.184 295.666 744.131 297.221 745.957 297.965 C 747.107 298.439 748.392 298.439 749.61 298.168 C 750.557 297.965 750.962 297.424 752.315 296.68 L 752.315 297.559 L 754.209 297.559 C 754.209 294.854 754.276 291.54 754.209 288.429 C 754.209 286.467 753.059 285.25 751.165 284.844 Z  M 752.112 293.366 C 752.045 293.569 752.112 293.772 752.112 293.975 C 752.112 295.395 751.774 295.869 750.421 296.41 C 749.474 296.748 748.46 296.883 747.445 296.545 C 746.296 296.207 745.484 295.192 745.484 294.042 C 745.416 292.893 746.16 291.743 747.31 291.405 C 748.866 290.864 750.286 291.202 751.571 292.149 C 751.977 292.487 752.247 292.825 752.112 293.366 L 752.112 293.366 Z  M 762.663 286.67 C 764.422 286.129 766.045 286.467 767.262 287.955 L 767.465 288.091 C 767.939 287.685 768.344 287.279 768.885 286.806 C 768.683 286.603 768.615 286.467 768.48 286.265 C 766.518 284.168 762.663 283.897 760.296 285.588 C 756.982 288.023 757.049 292.757 758.673 295.26 C 760.228 297.627 762.46 298.439 765.098 298.101 C 766.653 297.898 767.939 297.154 768.953 295.869 C 768.48 295.463 768.006 295.057 767.533 294.584 C 767.397 294.719 767.33 294.786 767.262 294.922 C 765.436 296.951 762.393 296.748 760.769 294.584 C 759.822 293.298 759.62 291.811 759.89 290.323 C 760.025 288.632 760.905 287.279 762.663 286.67 Z  M 776.731 295.869 C 776.596 295.936 776.528 296.004 776.528 296.004 C 775.987 296.41 775.446 296.477 774.837 296.274 C 774.228 296.004 774.161 295.463 774.093 294.922 L 774.093 287.211 C 774.093 287.076 774.093 287.347 774.161 286.67 L 776.731 286.67 L 776.731 284.641 L 774.026 284.641 L 774.026 281.26 L 771.997 281.26 L 771.997 284.912 L 770.238 284.912 C 770.103 284.912 769.9 285.047 769.9 285.182 C 769.832 285.656 769.9 285.994 769.9 286.67 L 772.064 286.67 L 772.064 295.328 C 772.064 296.41 772.335 297.357 773.282 297.898 C 774.296 298.506 776.258 298.371 777.137 297.627 C 777.272 297.559 777.34 297.289 777.34 297.221 C 777.137 296.815 776.934 296.342 776.731 295.869 L 776.731 295.869 Z " fill="rgb(97,218,251)"/></g></g></g></svg>